<svg width="1152" height="700" viewBox="0 0 1152 700" fill="none" xmlns="http://www.w3.org/2000/svg">
<rect width="1152" height="700" fill="url(#paint0_linear)"/>
<path opacity="0.5" fill-rule="evenodd" clip-rule="evenodd" d="M1152 414.431L1104 430.296C1056 446.161 960 477.891 864 520.197C768 562.504 672 615.387 576 594.234C480 573.081 371 490.57 288 440.873C172 371.417 96 379.36 48 389.937L0 400.093V700H48C96 700 192 700 288 700C384 700 480 700 576 700C672 700 768 700 864 700C960 700 1056 700 1104 700H1152V414.431Z" fill="url(#paint1_linear)" fill-opacity="0.6"/>
<path opacity="0.5" fill-rule="evenodd" clip-rule="evenodd" d="M0 604.322L48 617.042C96 629.762 192 655.203 288 667.923C384 680.643 480 680.643 576 680.643C672 680.643 768 680.643 864 655.203C960 629.762 1056 578.881 1104 553.441L1152 528V700H1104C1056 700 960 700 864 700C768 700 672 700 576 700C480 700 384 700 288 700C192 700 96 700 48 700H0V604.322Z" fill="url(#paint2_linear)"/>
<path opacity="0.3" fill-rule="evenodd" clip-rule="evenodd" d="M0 513.712L103 468.824C144.5 454.235 192 431.167 288 482.374C384 533.58 480 597.588 576 571.984C672 546.381 768 431.167 864 386.362C960 341.557 1056 367.16 1104 379.961L1152 392.763V700H1104C1056 700 960 700 864 700C768 700 672 700 576 700C480 700 384 700 288 700C192 700 96 700 48 700H0V513.712Z" fill="url(#paint3_linear)" fill-opacity="0.8"/>
<defs>
<linearGradient id="paint0_linear" x1="0" y1="0" x2="621.296" y2="1022.48" gradientUnits="userSpaceOnUse">
<stop stop-color="#EE9AE5"/>
<stop offset="1" stop-color="#5961F9"/>
</linearGradient>
<linearGradient id="paint1_linear" x1="1152" y1="433.549" x2="1018.62" y2="971.622" gradientUnits="userSpaceOnUse">
<stop stop-color="#EE9AE5"/>
<stop offset="1" stop-color="#5961F9"/>
</linearGradient>
<linearGradient id="paint2_linear" x1="0" y1="528" x2="50.2411" y2="864.499" gradientUnits="userSpaceOnUse">
<stop stop-color="#EE9AE5"/>
<stop offset="1" stop-color="#5961F9"/>
</linearGradient>
<linearGradient id="paint3_linear" x1="0.000145912" y1="354.358" x2="190.281" y2="988.551" gradientUnits="userSpaceOnUse">
<stop stop-color="#EE9AE5"/>
<stop offset="1" stop-color="#5961F9"/>
</linearGradient>
</defs>
</svg>
