<svg width="26" height="26" viewBox="0 0 16 16" fill="none" xmlns="http://www.w3.org/2000/svg">
<path d="M15.6 0.399923C14.8 -0.400077 13.5 0.299923 12.9 0.899923L9.4 4.69992L7 3.69992L7.6 3.09992C7.8 2.89992 7.8 2.59992 7.6 2.39992C7.5 2.19992 7.2 2.29992 7 2.39992L6.1 3.29992L4.3 2.49992L4.8 1.99992C5 1.79992 5 1.49992 4.8 1.39992C4.6 1.19992 4.3 1.19992 4.1 1.39992L3.3 2.19992L2.8 1.99992C2 1.59992 1.1 1.69992 0.5 2.39992L6.3 8.19992L4 10.5999L0.5 10.3999L0 11.0999L3.1 12.8999L4.9 15.9999L5.6 15.4999L5.4 11.9999L7.9 9.69992L13.7 15.4999C14.3 14.8999 14.5 13.8999 14.1 13.1999L13.9 12.6999L14.7 11.8999C14.9 11.6999 14.9 11.3999 14.7 11.1999C14.5 10.9999 14.2 10.9999 14 11.1999L13.5 11.6999L12.7 9.79992L13.6 8.89992C13.8 8.69992 13.8 8.39992 13.6 8.19992C13.4 7.99992 13.1 7.99992 13 8.19992L12.4 8.79992L11.4 6.39992L15.2 2.99992C15.8 2.49992 16.4 1.09992 15.6 0.399923V0.399923Z" fill="black"/>
</svg>
