<svg width="129" height="129" viewBox="0 0 129 129" fill="none" xmlns="http://www.w3.org/2000/svg">
<path d="M128.759 86.4193C128.759 109.536 99.935 128.276 64.3792 128.276C28.8234 128.276 0 109.536 0 86.4193C0 63.3021 28.8237 44.5623 64.3795 44.5623C99.9352 44.5623 128.759 63.3024 128.759 86.4193V86.4193Z" fill="#BFBCAF"/>
<path d="M128.759 80.5934C128.759 103.71 99.935 122.45 64.3792 122.45C28.8234 122.45 0 103.711 0 80.5934C0 57.4762 28.8237 38.7364 64.3795 38.7364C99.9352 38.7364 128.759 57.4765 128.759 80.5934Z" fill="#E3E8E7"/>
<path d="M115.103 80.5934C115.103 98.8068 92.3932 113.572 64.3794 113.572C36.3657 113.572 13.6558 98.8068 13.6558 80.5934C13.6558 62.3799 36.3655 47.615 64.3792 47.615C92.3929 47.615 115.103 62.3799 115.103 80.5934Z" fill="#F9F9F7"/>
<path d="M106.71 31.4003C104.304 31.4001 100.039 28.9882 96.9244 27.2274C93.8803 25.5059 92.2352 24.6076 91.0251 24.6076C90.9878 24.6076 90.9505 24.6083 90.9147 24.6101C90.8598 24.6124 90.8037 24.6137 90.7466 24.6137C88.6498 24.6137 84.8146 23.1583 81.7329 21.989C78.6015 20.8008 76.7706 20.1284 75.5551 20.1284C75.5071 20.1284 75.4599 20.1294 75.4145 20.1315C75.3231 20.1355 75.2319 20.1375 75.1402 20.1375C71.014 20.1375 66.8837 16.0169 65.9336 10.9517C65.4042 8.12956 65.9252 5.4709 67.3633 3.65725C68.4082 2.33948 69.8349 1.60417 71.4893 1.53028C71.5807 1.52622 71.6719 1.52419 71.7633 1.52419C75.0207 1.52419 78.4606 4.18411 80.1285 7.9927C80.2355 8.23715 80.4048 8.44923 80.6195 8.60772C80.8342 8.76621 81.0867 8.86557 81.3518 8.89585C81.6169 8.92613 81.8854 8.88627 82.1302 8.78027C82.3751 8.67427 82.5879 8.50583 82.7473 8.2918C83.802 6.87501 85.2688 6.08561 86.989 6.00893C87.0804 6.00487 87.1716 6.00284 87.263 6.00284C91.116 6.00284 94.9797 9.54077 96.2503 14.2322C96.3233 14.5014 96.4688 14.7454 96.671 14.9376C96.8731 15.1299 97.1241 15.263 97.3966 15.3224C97.6691 15.3819 97.9527 15.3655 98.2165 15.275C98.4804 15.1845 98.7143 15.0233 98.8929 14.8091C99.9301 13.5637 101.323 12.8677 102.922 12.7964C103.013 12.7923 103.104 12.7903 103.196 12.7903C107.322 12.7903 111.453 16.9109 112.403 21.9761C112.932 24.798 112.411 27.4566 110.973 29.2706C109.928 30.5883 108.502 31.3239 106.847 31.3975C106.801 31.3994 106.756 31.4003 106.71 31.4003V31.4003Z" fill="#F2F2F0"/>
<path d="M113.902 21.695C112.806 15.8547 108.058 11.2658 103.196 11.2658C103.082 11.2658 102.969 11.2684 102.854 11.2734C100.753 11.3671 98.9836 12.3185 97.7219 13.8336C96.2812 8.51449 91.8229 4.47891 87.2633 4.47865C87.1493 4.47865 87.0355 4.48119 86.9213 4.48627C84.6688 4.58656 82.7976 5.67201 81.5247 7.38156C79.6364 3.06947 75.7387 0.000507812 71.7631 0C71.6491 0 71.5353 0.00253906 71.4213 0.00761719C66.4417 0.229531 63.3138 5.25535 64.4353 11.2328C64.514 11.6525 64.6138 12.0649 64.7288 12.4703C64.2853 12.5473 63.8983 12.6626 63.5774 12.821C56.6429 16.2462 31.9516 53.7017 31.1657 54.8955L31.1462 54.9014V99.421C31.1462 100.455 32.1336 101.203 33.1289 100.922C45.3659 97.4634 110.102 79.0441 110.102 76.4382V32.0036C113.134 30.2646 114.758 26.2595 113.902 21.695ZM109.779 28.3232C109.449 28.7394 109.074 29.0677 108.66 29.3175C102.526 23.9784 78.7688 13.5131 67.923 12.4442C67.7102 11.8677 67.5459 11.2745 67.4319 10.6707C66.984 8.28293 67.3943 6.07191 68.558 4.60434C69.3311 3.62934 70.3402 3.1073 71.5574 3.05322C71.6262 3.05018 71.6945 3.04865 71.7633 3.04865C74.4341 3.04891 77.3 5.33355 78.7325 8.60437C78.9466 9.09335 79.2852 9.51757 79.7146 9.83458C80.1441 10.1516 80.6492 10.3503 81.1795 10.4108C81.7099 10.4713 82.2468 10.3915 82.7366 10.1794C83.2264 9.96728 83.6519 9.63027 83.9706 9.20207C84.5091 8.47894 85.4816 7.60195 87.0576 7.53187C87.1264 7.52883 87.195 7.5273 87.2635 7.5273C90.3995 7.52756 93.7011 10.6476 94.7797 14.6306C94.9254 15.1693 95.2162 15.6577 95.6205 16.0426C96.0247 16.4274 96.5268 16.6938 97.0721 16.8129C97.6174 16.9319 98.1849 16.899 98.7127 16.7177C99.2405 16.5363 99.7085 16.2136 100.065 15.7846C100.832 14.8647 101.816 14.3716 102.991 14.3193C103.06 14.3162 103.128 14.3147 103.197 14.3147C104.755 14.3147 106.403 15.0825 107.837 16.4767C109.402 17.9974 110.492 20.0505 110.906 22.2572C111.353 24.6446 110.943 26.8557 109.779 28.3232V28.3232Z" fill="#E2E0D7"/>
<path d="M104.032 76.1218L31.1462 98.087V54.9014L104.032 32.9362V76.1218Z" fill="#FFD469"/>
<path d="M104.032 32.9362V76.1218L31.1462 98.087V94.2467L100.86 73.2375V57.4051L31.1462 78.4144V74.574L100.86 53.5648V37.7325L31.1462 58.7417V54.9014L104.032 32.9362V32.9362Z" fill="#FFBD03"/>
<path d="M62.5274 35.9879C57.0484 30.5089 63.4423 25.9317 66.6113 14.9261C69.7803 3.92057 82.6739 11.5565 87.409 16.2916C102.695 31.5773 68.0065 41.4669 62.5274 35.9879V35.9879Z" fill="#FF473E"/>
<path d="M74.3023 12.8377L74.2587 12.9104C74.2297 12.9507 74.1881 13.0246 74.134 13.0896C74.083 13.1594 74.0038 13.2448 73.9596 13.3369L73.8161 13.6045C73.757 13.7005 73.6975 13.7912 73.6353 13.8757C73.5714 13.9712 73.5048 14.0509 73.4332 14.1289C73.3622 14.2092 73.284 14.2829 73.1996 14.349C73.1153 14.4196 73.026 14.4726 72.9305 14.531C72.7307 14.6413 72.515 14.72 72.2912 14.7644C72.0593 14.8109 71.8108 14.8248 71.5716 14.8147C71.4523 14.8096 71.3344 14.7982 71.226 14.7844C71.1181 14.772 71.0115 14.7479 70.9259 14.7329C70.8426 14.7205 70.7626 14.6951 70.7139 14.6854L70.6319 14.6633C70.6319 14.6633 70.6253 14.6318 70.6202 14.579C70.6174 14.5293 70.605 14.4445 70.6093 14.3589C70.6105 14.2695 70.6111 14.1576 70.6268 14.0448C70.6408 13.9295 70.6662 13.8097 70.7007 13.6835C70.776 13.4189 70.9 13.1707 71.0663 12.9515C71.246 12.7167 71.4728 12.5219 71.7321 12.3797C71.861 12.3045 72.0091 12.2482 72.1528 12.1999C72.2975 12.1522 72.4572 12.1263 72.6068 12.1095C72.76 12.0976 72.914 12.1005 73.0666 12.1184C73.2123 12.1394 73.3557 12.1735 73.4952 12.2205C73.6284 12.2643 73.7566 12.3223 73.8773 12.3937C73.989 12.4513 74.0495 12.5404 74.1124 12.6029C74.1723 12.6626 74.2203 12.7321 74.2526 12.7697L74.3023 12.8377V12.8377ZM70.1784 22.2871L70.2459 22.3194C70.2873 22.3354 70.3536 22.3694 70.4275 22.3915C70.5049 22.4141 70.5892 22.4593 70.7091 22.457C70.8417 22.4625 70.9745 22.4552 71.1057 22.4351C71.2445 22.4137 71.3814 22.3811 71.515 22.3376C71.6544 22.2862 71.7896 22.2241 71.9194 22.1518C72.0444 22.0746 72.1759 21.9873 72.2871 21.8867C72.3973 21.7862 72.5098 21.678 72.5989 21.5607C72.7811 21.3344 72.9209 21.0771 73.0115 20.801C73.0577 20.6697 73.0811 20.5334 73.1037 20.4052C73.1214 20.2744 73.128 20.1469 73.1265 20.0263C73.1236 19.9125 73.1127 19.799 73.094 19.6866C73.078 19.5835 73.0493 19.4876 73.0275 19.4099C73.0089 19.3344 72.977 19.2664 72.962 19.2243L72.9312 19.1552C72.9133 19.1148 72.8826 19.0815 72.8438 19.0603C72.805 19.0391 72.7604 19.0312 72.7167 19.0379L72.687 19.0425C72.687 19.0425 72.6603 19.0465 72.6159 19.0579C72.574 19.0709 72.5032 19.0838 72.4326 19.11C72.2448 19.167 72.0623 19.2398 71.8869 19.3278C71.6879 19.4261 71.4906 19.5528 71.3088 19.6973C71.1316 19.8415 70.9725 20.0066 70.8347 20.1888C70.7697 20.2823 70.7063 20.3676 70.6529 20.4653C70.5981 20.5582 70.55 20.655 70.509 20.7548C70.4666 20.851 70.4313 20.9488 70.3996 21.0526C70.3673 21.1486 70.3391 21.2469 70.3142 21.3489L70.2637 21.6196C70.2533 21.71 70.2079 21.8062 70.1832 21.8804C70.1543 21.952 70.1393 22.0251 70.1258 22.0675L70.1088 22.1404C70.1018 22.1691 70.1049 22.1994 70.1176 22.2261C70.1302 22.2528 70.1517 22.2744 70.1784 22.2871V22.2871ZM68.3846 26.8991L68.317 26.8671C68.2754 26.8513 68.2091 26.8176 68.1352 26.7957C68.0578 26.7734 67.9732 26.7287 67.8534 26.7315C67.7208 26.7266 67.5881 26.7346 67.457 26.7554C67.3291 26.7762 67.1889 26.8077 67.0482 26.8549C66.9091 26.9069 66.7742 26.9697 66.6448 27.0428C66.5201 27.1205 66.3891 27.2086 66.2784 27.3096C66.1687 27.4107 66.0567 27.5194 65.9681 27.6372C65.7869 27.8643 65.6484 28.1223 65.5593 28.3989C65.5139 28.5304 65.491 28.6668 65.4692 28.7952C65.4528 28.9208 65.4458 29.0475 65.4481 29.1741C65.4532 29.2962 65.4634 29.4089 65.4824 29.5138C65.4989 29.6169 65.5281 29.7129 65.5504 29.7903C65.5692 29.8657 65.6017 29.9335 65.617 29.9757L65.6479 30.0447C65.6661 30.0851 65.697 30.1183 65.7359 30.1393C65.7748 30.1603 65.8196 30.168 65.8633 30.161L65.893 30.1562C65.893 30.1562 65.9196 30.1519 65.9641 30.1404C66.0057 30.1272 66.0765 30.114 66.1471 30.0876C66.3346 30.0297 66.5168 29.9559 66.6918 29.8672C66.8906 29.7682 67.0871 29.6402 67.2681 29.495C67.4446 29.35 67.6029 29.1842 67.7396 29.0012C67.8041 28.9075 67.8673 28.8217 67.9199 28.7236C67.9735 28.6274 68.0227 28.537 68.0623 28.4334C68.1042 28.3369 68.139 28.2389 68.1702 28.1351C68.2022 28.0391 68.2299 27.9406 68.2543 27.8383L68.3036 27.5674C68.3135 27.477 68.3586 27.3805 68.3828 27.3063C68.4115 27.2345 68.4259 27.1614 68.4394 27.119L68.4561 27.0458C68.4626 27.0169 68.459 26.9866 68.446 26.9599C68.433 26.9333 68.4113 26.9118 68.3846 26.8991V26.8991ZM81.0052 17.5957C81.0156 17.5631 81.0194 17.5289 81.0165 17.4948C81.0135 17.4608 81.0039 17.4277 80.9882 17.3973C80.9725 17.367 80.9509 17.3401 80.9248 17.3181C80.8987 17.2961 80.8684 17.2795 80.8359 17.2692L80.7724 17.2491C80.7328 17.24 80.6708 17.2181 80.5997 17.207C80.5271 17.1938 80.4436 17.1686 80.3255 17.1854C80.1969 17.1963 80.0695 17.2177 79.9444 17.2494C79.8225 17.2824 79.6849 17.3238 79.5534 17.3814C79.4277 17.4413 79.2891 17.5086 79.1657 17.5921C79.0428 17.6739 78.9133 17.7658 78.8049 17.8697C78.6937 17.973 78.583 18.0827 78.4898 18.2005C78.3012 18.427 78.1474 18.6804 78.0335 18.9523C77.9304 19.1926 77.8613 19.4462 77.8283 19.7057C77.8028 19.9034 77.8016 20.1035 77.8248 20.3016C77.8294 20.3747 77.8466 20.4402 77.853 20.4808L77.8685 20.5481L77.8687 20.5491C77.902 20.6913 78.0439 20.7794 78.1861 20.7464L78.2305 20.736C78.2305 20.736 78.2531 20.7307 78.2922 20.7167C78.3293 20.7015 78.3905 20.684 78.4542 20.6532C78.5893 20.5971 78.7683 20.511 78.9521 20.3963C79.3583 20.1424 79.719 19.8221 80.019 19.4487C80.0937 19.3509 80.1673 19.2593 80.2336 19.1608C80.2986 19.0592 80.3644 18.9719 80.4174 18.8678C80.4743 18.7698 80.5264 18.6789 80.5728 18.5793C80.6195 18.4846 80.6632 18.397 80.7018 18.3033C80.7389 18.2124 80.7602 18.1462 80.7889 18.0631C80.8082 17.9852 80.8582 17.9022 80.894 17.8387C80.9311 17.7767 80.9539 17.715 80.9725 17.6787L80.9979 17.6168C81.0004 17.6099 81.0032 17.6023 81.0052 17.5957V17.5957ZM83.037 27.6519C83.085 27.6633 83.1647 27.6918 83.2482 27.7052C83.3358 27.7189 83.4369 27.756 83.5613 27.7375C83.701 27.7247 83.8389 27.6969 83.9726 27.6544C84.1132 27.6111 84.2495 27.555 84.3799 27.4869C84.5142 27.4122 84.6409 27.3246 84.7582 27.2253C84.8699 27.1243 84.9842 27.01 85.0738 26.8866C85.1622 26.7635 85.2495 26.6312 85.3102 26.4949C85.4374 26.228 85.5075 25.9375 85.5161 25.642C85.5229 25.3669 85.4784 25.0931 85.3849 24.8343C85.3426 24.7187 85.292 24.6062 85.2335 24.4979C85.1805 24.3973 85.1155 24.3062 85.0642 24.2328C85.0177 24.1607 84.958 24.0993 84.9266 24.0607C84.8918 24.0208 84.8679 23.999 84.8679 23.999L84.7884 24.0289C84.743 24.0497 84.6635 24.0756 84.5886 24.1145C84.5104 24.1521 84.4099 24.1952 84.3149 24.248C84.2189 24.3003 84.1166 24.36 84.0171 24.4255C83.8146 24.5568 83.6285 24.7117 83.4625 24.8869C83.3069 25.0538 83.178 25.2438 83.0804 25.45C83.037 25.5534 82.9956 25.6486 82.9684 25.755C82.9385 25.8579 82.9181 25.9634 82.9075 26.0701C82.8937 26.1774 82.8883 26.2856 82.8915 26.3938C82.8905 26.4987 82.895 26.6071 82.9034 26.7196L82.9435 27.0207C82.9616 27.121 82.9471 27.2368 82.9466 27.3231C82.9405 27.4076 82.9501 27.4919 82.9501 27.5415L82.957 27.6258L83.037 27.6519V27.6519ZM75.6346 25.7659C75.5912 25.742 75.5221 25.6935 75.4452 25.6582C75.3644 25.6217 75.2768 25.5592 75.1519 25.544C75.0138 25.5192 74.8734 25.5094 74.7332 25.5148C74.5862 25.5192 74.4398 25.5371 74.296 25.5681C74.1467 25.6044 74.0013 25.6553 73.8618 25.7199C73.7272 25.7877 73.5868 25.8675 73.4675 25.9627C73.3497 26.0579 73.2301 26.1622 73.1356 26.2775C72.9421 26.501 72.7973 26.7624 72.7106 27.0451C72.631 27.3084 72.6011 27.5843 72.6225 27.8586C72.6342 27.9891 72.652 28.11 72.6791 28.2232C72.7035 28.3342 72.7421 28.4393 72.7718 28.5236C72.7974 28.6053 72.8388 28.6805 72.8586 28.7262C72.8817 28.7739 72.8988 28.8011 72.8988 28.8011L72.9833 28.7932C73.0326 28.7853 73.1163 28.7813 73.1986 28.764C73.2839 28.7485 73.3923 28.7338 73.498 28.7079C73.6044 28.683 73.7189 28.6528 73.8324 28.616C74.0604 28.5424 74.2884 28.4428 74.4895 28.3184C74.6839 28.1988 74.8587 28.05 75.0077 27.8771C75.077 27.789 75.1423 27.7083 75.1966 27.6128C75.2517 27.5191 75.3002 27.43 75.339 27.3251C75.3792 27.2271 75.4139 27.1291 75.4406 27.0174C75.4693 26.9163 75.4937 26.811 75.5158 26.7003L75.5572 26.3994C75.5665 26.2978 75.6112 26.1902 75.6346 26.1069C75.6628 26.0269 75.6762 25.9431 75.6892 25.8954L75.7049 25.8121L75.6346 25.7659V25.7659Z" fill="#E21A1A"/>
<path d="M89.3532 11.5619C93.3245 10.2238 95.288 12.4018 90.835 15.8752C88.3518 17.8123 85.9242 18.3975 84.4942 18.0822C84.3734 18.0548 84.2476 18.0588 84.1288 18.0938C83.2107 18.3739 82.4576 17.9159 82.2694 16.622C82.2184 16.2711 81.9416 16.0088 81.5958 15.9316C80.7534 15.7434 79.8634 14.6039 79.2716 12.1926C77.5166 5.04332 81.3965 1.57419 83.3983 8.44439L83.408 8.47791C83.5951 9.12639 84.4147 9.29726 84.8534 8.78437C86.6734 6.65613 88.6036 7.10935 88.2494 10.6983C88.19 11.3021 88.7781 11.7556 89.3532 11.5619V11.5619Z" fill="#16992B"/>
</svg>
