<svg width="67" height="123" viewBox="0 0 67 123" fill="none" xmlns="http://www.w3.org/2000/svg">
<path d="M50.6214 74.9602L4.63391 74.554C4.63391 74.554 4.20734 76.7376 5.09094 78.9415C5.90344 80.9727 9.18391 83.8977 9.18391 83.8977L13.0331 92.3782L16.2019 112.152L16.8113 117.87C16.8113 117.87 19.0659 122.085 31.812 122.085C44.5581 122.085 46.7823 117.718 46.7823 117.718L47.2191 114.041L50.7636 93.6173L57.8527 81.379C57.8527 81.379 59.4066 80.2923 60.3105 77.9767C60.9402 76.3618 60.605 74.0868 60.605 74.3509C60.605 74.6149 50.6214 74.9602 50.6214 74.9602V74.9602Z" fill="#E27F13"/>
<path d="M32.6245 96.3899C42.9534 96.4509 47.9401 95.8009 50.9769 93.6681C53.262 92.0634 54.3792 90.2454 55.9331 87.6556C58.0862 84.0704 57.9948 81.3181 57.9948 81.3181C57.9948 81.3181 49.3823 85.7563 32.3503 85.5329C15.6331 85.3196 6.66513 81.3384 6.66513 81.3384C6.66513 81.3384 7.47763 85.279 8.82841 87.8384C10.3925 90.7837 13.2464 92.6524 13.2464 92.6524C13.2464 92.6524 18.6597 96.3087 32.6245 96.3899V96.3899Z" fill="#F5B03E"/>
<path d="M15.0237 97.2532C16.0495 97.629 17.1159 97.9845 17.1159 97.9845L18.6394 116.134C18.6394 116.134 15.9073 115.209 15.5925 114.234C15.4097 113.676 14.5565 107.653 13.9472 102.758C13.6222 100.138 13.3276 98.3704 13.2464 97.436C13.155 96.4204 14.0589 96.8977 15.0237 97.2532V97.2532Z" fill="#F5B03E"/>
<path d="M26.0027 99.8126C22.5495 99.3759 19.7972 98.797 19.7972 98.797C19.848 99.1727 21.0972 116.713 21.0972 116.713C21.0972 116.713 22.4378 117.566 26.2058 118.033L26.0027 99.8126Z" fill="#F5B03E"/>
<path d="M35.0315 100.107C32.462 100.249 29.5979 100.067 28.6433 100.036L28.562 118.246C29.5573 118.307 30.6542 118.338 31.8831 118.327C32.9394 118.317 33.9347 118.256 34.8995 118.175L35.0315 100.107V100.107Z" fill="#F5B03E"/>
<path d="M46.8534 98.929C46.3659 103.073 45.3401 112.051 44.9339 115.758C46.8534 115.057 47.6152 114.691 47.8691 113.727C48.123 112.762 50.1238 98.9696 50.1745 98.2181C50.2152 97.7407 49.9917 97.6595 48.7527 98.1774C47.9706 98.5227 47.5948 98.6649 46.8534 98.929V98.929Z" fill="#F5B03E"/>
<path d="M44.4261 99.3048C42.6589 99.5993 40.3331 99.8938 37.5909 100.117L37.2558 117.881C39.4698 117.515 41.3589 116.977 42.9026 116.408C43.319 112.122 44.1519 102.687 44.4261 99.3048V99.3048Z" fill="#F5B03E"/>
<path d="M25.3019 11.9306C26.4597 11.829 25.1597 6.96416 28.0745 6.90322C32.0659 6.81181 30.9284 12.9462 29.1104 14.7946C24.2964 19.7001 16.7706 18.7556 14.9831 26.7587C13.8151 31.9688 19.0964 33.8376 19.0964 33.8376C19.0964 33.8376 10.3823 33.3399 6.31982 41.8407C2.99873 48.7977 7.01045 53.6321 7.01045 53.6321C7.01045 53.6321 2.40967 54.5056 0.510447 61.0868C-1.9169 69.4962 5.10107 75.0415 5.10107 75.0415L35.2753 77.4688L64.8401 63.8595L64.6675 57.1868C64.6675 57.1868 63.3065 55.2267 61.9659 54.0485C60.4729 52.7384 58.8581 51.6618 58.8581 51.6618L60.7573 42.7954C60.7573 42.7954 61.062 37.3821 53.6581 31.786C50.337 29.2673 46.7315 28.5665 46.7315 28.5665C46.7315 28.5665 44.619 15.922 44.1925 15.0587C43.7558 14.1954 38.9925 6.55791 38.119 6.03994C37.2558 5.52197 31.2839 0.281343 31.2839 0.281343C31.2839 0.281343 27.0183 -1.16084 24.1542 2.48525C21.2901 6.13134 22.2651 12.1946 25.3019 11.9306V11.9306Z" fill="#FFEBCA"/>
<path d="M37.8753 24.5954C31.8019 32.7407 19.0761 33.8274 19.0761 33.8274C19.0761 33.8274 23.1386 36.6509 35.2651 35.6962C47.9401 34.7009 50.8753 29.0235 50.7026 22.7774C50.53 16.5313 46.2034 9.91962 39.8151 4.679C33.8331 -0.216316 29.3136 0.0375898 29.3136 0.0375898C29.3136 0.0375898 34.1073 1.48993 37.7433 6.43603C41.5823 11.6462 41.3284 19.954 37.8753 24.5954V24.5954Z" fill="#EAC084"/>
<path d="M7.01047 53.622C7.01047 53.622 15.4198 58.3345 35.2753 58.1517C53.912 57.979 59.1222 51.9056 59.1222 51.9056C59.1222 51.9056 61.2448 49.011 61.0722 44.1563C60.8995 39.0985 58.0659 36.1735 58.0659 36.1735C58.0659 36.1735 52.7948 42.9782 45.6855 46.9696C38.5761 50.961 24.8652 52.7892 18.548 53.2157C12.1292 53.6321 7.01047 53.622 7.01047 53.622V53.622Z" fill="#EAC084"/>
<path d="M64.6675 57.1868C64.6675 57.1868 67.4503 60.3048 66.4855 65.3321C65.3581 71.2329 60.6761 75.2141 60.6761 75.2141C60.6761 75.2141 55.73 80.1704 31.2941 80.3532C9.43781 80.5157 4.72531 74.7165 4.72531 74.7165C4.72531 74.7165 27.4956 75.6813 42.5269 70.6032C55.1816 66.3376 57.8222 64.611 61.6409 60.8024C62.9511 59.5024 64.6675 57.1868 64.6675 57.1868V57.1868Z" fill="#EAC084"/>
<path d="M5.71045 70.5118C7.56904 70.2985 6.52295 65.0681 8.79795 62.1126C11.0831 59.1571 12.1394 58.3142 11.6417 57.1563C11.1542 55.9985 6.37061 55.8563 4.29873 60.9852C2.58232 65.261 4.24795 70.6743 5.71045 70.5118Z" fill="white"/>
<path d="M21.8589 37.6868C21.9605 39.5454 18.5886 39.129 14.8308 43.7602C11.7839 47.5181 12.2003 51.4485 10.3315 51.6313C8.47295 51.804 7.72139 45.2227 10.23 41.4852C13.7745 36.1837 21.7167 35.2696 21.8589 37.6868V37.6868Z" fill="white"/>
<path d="M29.6691 18.8977C30.38 19.3446 29.4558 21.3556 26.2667 23.7829C22.4683 26.6673 21.0667 28.9423 19.6652 28.5563C18.6394 28.272 17.6644 26.0985 19.7363 23.7118C21.3206 21.8837 24.4284 21.0407 25.9214 20.3399C28.0847 19.3142 28.9988 18.4712 29.6691 18.8977V18.8977Z" fill="white"/>
</svg>
