<svg width="25" height="24" viewBox="0 0 26 25" fill="none" xmlns="http://www.w3.org/2000/svg">
<path d="M26 9.71865V23.163C26 23.5196 25.863 23.8615 25.6192 24.1136C25.3754 24.3658 25.0448 24.5074 24.7 24.5074H1.3C0.955219 24.5074 0.624558 24.3658 0.380761 24.1136C0.136964 23.8615 0 23.5196 0 23.163V9.71865H26ZM26 7.02979H0V1.65205C0 1.29548 0.136964 0.953523 0.380761 0.701393C0.624558 0.449262 0.955219 0.307617 1.3 0.307617H24.7C25.0448 0.307617 25.3754 0.449262 25.6192 0.701393C25.863 0.953523 26 1.29548 26 1.65205V7.02979ZM16.9 17.7853V20.4741H22.1V17.7853H16.9Z" fill="white"/>
</svg>
