<svg width="308" height="216" viewBox="0 0 308 216" fill="none" xmlns="http://www.w3.org/2000/svg">
<g opacity="0.17">
<path opacity="0.17" d="M231.889 52.8658C234.477 51.7374 229.228 51.0805 223.274 50.8645C217.319 50.6485 210.116 50.6605 206.31 50.0462C202.63 49.4521 202.901 48.3957 202.592 47.4385C202.282 46.4814 200.867 45.5 195.124 45.2872C187.968 45.0221 176.167 46.0427 170.765 45.43C165.724 44.8582 168.72 43.0647 161.369 42.9961C157.172 42.9569 151.764 43.5482 147.093 43.6909C142.708 43.8248 139.464 43.5474 137.188 43.1744C134.911 42.8014 133.326 42.3286 130.764 41.9991C124.037 41.1342 110.876 41.4249 99.1297 42.5335C87.3833 43.642 77.3144 45.4587 71.6359 47.2581C65.9574 49.0574 64.3886 50.8291 65.7113 52.3314C66.556 53.2907 68.7174 54.1877 73.9604 54.5732C83.7672 55.2942 101.227 54.0531 111.361 54.7091C117.009 55.0748 119.515 55.9812 124.47 56.4772C129.794 57.0101 137.587 57.0384 145.245 57.0257C161.188 56.9994 177.539 56.8356 194.212 56.5352C201.176 56.4097 208.473 56.2466 215.884 55.6487C223.294 55.0507 230.852 53.897 232.416 52.8154" fill="white"/>
</g>
<path d="M287.856 32.8946C287.733 32.5779 287.599 32.2638 287.459 31.9578C287.684 32.0464 287.91 32.143 288.133 32.2477L287.856 32.8946Z" fill="#00BFA6"/>
<path d="M166.93 71.1538C164.872 67.7491 162.432 64.1139 158.612 63.0021C154.188 61.7147 149.643 64.2723 145.788 66.7961C134.26 74.344 123.158 82.5239 112.533 91.2981L112.545 91.4303C120.817 90.8598 129.089 90.2894 137.36 89.7189C143.337 89.3068 149.518 88.8378 154.8 86.0106C156.804 84.9378 158.758 83.5047 161.029 83.4048C163.85 83.2808 166.31 85.2514 168.244 87.3101C179.68 99.4885 182.99 118.112 195.821 128.812C187.73 108.859 178.07 89.5791 166.93 71.1538V71.1538Z" fill="#F2F2F2"/>
<path d="M237.229 174.449C235.964 172.852 235.448 172.478 234.2 170.866C224.042 157.728 214.495 144.147 205.558 130.122C199.487 120.597 193.718 110.889 188.249 100.998C185.646 96.2953 183.114 91.5561 180.653 86.7799C178.744 83.0766 176.877 79.3511 175.053 75.6035C174.531 74.5331 174.024 73.4578 173.52 72.38C172.331 69.8455 171.165 67.2988 169.913 64.7987C168.485 61.9493 166.748 58.962 164.127 57.0476C162.935 56.1406 161.509 55.5918 160.016 55.4654C157.882 55.3276 155.914 56.2085 154.063 57.1706C140.525 64.2303 127.85 73.0813 116.386 83.1529C104.892 93.247 94.6185 104.651 85.7748 117.132C85.5042 117.519 84.8644 117.149 85.1375 116.761C86.2128 115.24 87.3095 113.736 88.4274 112.248C102.328 93.7598 119.373 77.8612 138.783 65.2785C142.048 63.1624 145.375 61.1454 148.763 59.2277C150.471 58.2607 152.186 57.306 153.93 56.4103C155.641 55.5318 157.457 54.7419 159.41 54.7124C166.059 54.6091 169.502 62.1387 171.866 67.2053C172.609 68.7998 173.362 70.3894 174.123 71.974C176.999 77.9904 179.986 83.9517 183.084 89.8582C184.996 93.5049 186.95 97.1303 188.946 100.734C195.157 111.957 201.758 122.953 208.749 133.722C218.011 147.987 227.199 160.588 237.751 173.927C238.041 174.296 237.522 174.823 237.229 174.449Z" fill="#E4E4E4"/>
<path d="M115.728 79.4348C115.342 79.0042 114.958 78.5736 114.569 78.1429C111.503 74.7521 108.214 71.4007 104.003 69.4568C101.996 68.5006 99.8044 67.9926 97.581 67.9681C95.2827 67.9755 93.0362 68.5783 90.9126 69.4223C89.9087 69.8234 88.9268 70.2786 87.9598 70.7634C86.8549 71.3195 85.7697 71.9125 84.6896 72.5105C82.6619 73.6325 80.6606 74.8038 78.6856 76.0243C74.7558 78.453 70.9492 81.067 67.2656 83.8665C65.356 85.3183 63.4859 86.8176 61.6552 88.3646C59.9524 89.8016 58.2841 91.2772 56.6502 92.7913C56.3008 93.1137 55.7791 92.592 56.1285 92.2697C56.5591 91.8686 56.9947 91.4699 57.4302 91.0762C58.6605 89.964 59.9106 88.8731 61.1803 87.8035C63.4957 85.8498 65.8711 83.9715 68.3064 82.1686C72.0934 79.3634 76.0108 76.7486 80.0585 74.324C82.0813 73.1133 84.1318 71.9535 86.2102 70.8446C86.8377 70.5099 87.4726 70.1827 88.1148 69.8726C89.572 69.1376 91.0861 68.5212 92.6424 68.0296C94.847 67.3164 97.1795 67.0873 99.4807 67.3578C101.703 67.681 103.843 68.4216 105.79 69.5404C109.924 71.851 113.13 75.4239 116.25 78.9107C116.565 79.265 116.046 79.7891 115.728 79.4348Z" fill="#E4E4E4"/>
<path d="M200.431 114.573L210.336 110.949L215.255 109.151C216.857 108.565 218.454 107.898 220.11 107.478C221.549 107.067 223.077 107.087 224.505 107.534C225.779 108.006 226.945 108.728 227.933 109.659C228.943 110.589 229.883 111.593 230.745 112.662C231.816 113.949 232.871 115.249 233.93 116.545C238.304 121.894 242.649 127.266 246.966 132.661C251.282 138.056 255.57 143.474 259.828 148.916C264.097 154.37 268.337 159.847 272.547 165.347C273.063 166.021 273.578 166.695 274.093 167.369C274.378 167.742 275.019 167.374 274.731 166.997C270.489 161.441 266.218 155.909 261.918 150.399C257.607 144.876 253.266 139.377 248.895 133.901C244.525 128.425 240.124 122.972 235.695 117.544C234.591 116.191 233.486 114.841 232.379 113.491C231.445 112.353 230.521 111.202 229.497 110.143C227.616 108.198 225.267 106.479 222.455 106.433C220.802 106.405 219.201 106.93 217.665 107.486C216.009 108.085 214.357 108.695 212.703 109.3L202.728 112.949L200.234 113.861C199.792 114.023 199.983 114.736 200.431 114.573Z" fill="#E4E4E4"/>
<path d="M102.7 73.7234C97.6659 71.1362 91.2192 71.643 86.5934 74.8753C95.4168 76.3975 104.144 78.4343 112.729 80.9753C109.164 78.8859 106.375 75.6124 102.7 73.7234Z" fill="#F2F2F2"/>
<path d="M86.5438 74.8663L85.5747 75.654C85.9025 75.3783 86.2433 75.1199 86.5933 74.8752C86.5768 74.8724 86.5603 74.8692 86.5438 74.8663Z" fill="#F2F2F2"/>
<path d="M227.56 114.609C226.585 113.422 225.531 112.179 224.072 111.697L222.711 111.751C233.076 130.067 247.076 146.072 263.85 158.783C251.754 144.058 239.657 129.333 227.56 114.609Z" fill="#F2F2F2"/>
<path d="M284.477 174.19C281.642 179.915 277.168 184.918 272.025 188.778C264.141 194.697 254.758 198.253 245.366 201.254C192.321 218.21 134.38 219.52 80.6242 204.98C65.7538 200.959 50.8083 195.526 39.2422 185.351C35.5401 182.092 32.3112 178.333 29.6489 174.182C45.0427 165.721 63.7004 162.532 81.5046 162.922C107.028 163.48 131.956 170.292 157.241 173.817C187.018 177.961 217.252 177.545 246.904 172.582C257.189 170.856 267.835 168.599 277.903 171.331C280.218 171.97 282.431 172.933 284.477 174.19V174.19Z" fill="#3F3D56"/>
<path d="M48.1323 27.3786C55.6927 27.3786 61.8216 21.2497 61.8216 13.6893C61.8216 6.12891 55.6927 0 48.1323 0C40.5719 0 34.443 6.12891 34.443 13.6893C34.443 21.2497 40.5719 27.3786 48.1323 27.3786Z" fill="#CCCCCC"/>
<path d="M90.0456 12.9759C86.4227 9.17545 82.2152 5.7084 77.2342 3.87631C75.8467 3.3638 74.4081 3.00227 72.9432 2.79798C72.9314 2.79637 72.9202 2.79875 72.9085 2.7978C72.8847 2.79166 72.8605 2.78692 72.8361 2.7836C70.7873 2.52259 68.7077 2.64814 66.7051 3.15374C65.7258 3.39949 64.7705 3.73231 63.8505 4.14821C62.9272 4.59863 62.0326 5.10561 61.1718 5.66626C59.3498 6.75691 57.3437 7.50528 55.2526 7.87448C54.2029 8.06345 53.1398 8.1678 52.0734 8.18651C51.1481 8.20507 50.2755 8.23721 49.3989 8.57149C48.4625 8.92363 47.6213 9.48977 46.9425 10.2247C46.2637 10.9597 45.7661 11.8431 45.4894 12.8046C45.4681 12.8902 45.4745 12.9804 45.5078 13.0621C45.541 13.1438 45.5994 13.2129 45.6744 13.2593C45.9116 13.4291 46.1428 13.6218 46.3919 13.7731C46.6136 13.8746 46.8503 13.9391 47.0928 13.9643C47.4889 14.0478 47.8855 14.129 48.2826 14.2077C49.7456 14.4976 51.2148 14.7542 52.6899 14.9775C55.6749 15.4294 58.676 15.7477 61.6933 15.9324C67.7376 16.2985 73.8027 16.1162 79.8142 15.3878C83.1927 14.9786 86.5483 14.3982 89.8679 13.6489C89.9351 13.6292 89.9961 13.5925 90.045 13.5424C90.0938 13.4922 90.1289 13.4303 90.1468 13.3626C90.1647 13.2949 90.1647 13.2237 90.147 13.1559C90.1293 13.0882 90.0943 13.0262 90.0456 12.9759V12.9759Z" fill="#F0F0F0"/>
<path d="M48.7819 22.1287C47.3945 21.6162 45.9558 21.2547 44.4909 21.0504C44.4791 21.0488 44.468 21.0512 44.4563 21.0502C44.4324 21.0441 44.4083 21.0393 44.3839 21.036C42.335 20.775 40.2554 20.9005 38.2529 21.4062C37.2736 21.6519 36.3182 21.9847 35.3982 22.4006C34.4749 22.851 33.5803 23.358 32.7195 23.9187C30.8975 25.0093 28.8915 25.7577 26.8003 26.1269C25.7506 26.3159 24.6875 26.4202 23.6211 26.4389C22.6959 26.4575 21.8233 26.4896 20.9466 26.8239C20.0102 27.176 19.169 27.7422 18.4902 28.4772C17.8114 29.2121 17.3138 30.0956 17.0371 31.057C17.0158 31.1426 17.0222 31.2328 17.0555 31.3145C17.0887 31.3963 17.1471 31.4653 17.2222 31.5117C17.4593 31.6815 17.6905 31.8742 17.9396 32.0255C18.1613 32.127 18.398 32.1916 18.6405 32.2167C19.0366 32.3003 19.4332 32.3814 19.8304 32.4601C21.2934 32.75 22.7625 33.0066 24.2377 33.2299C27.2227 33.6818 30.2238 34.0001 33.241 34.1848C39.2854 34.551 45.3505 34.3687 51.362 33.6402C54.7404 33.231 58.096 32.6506 61.4156 31.9013C61.4829 31.8816 61.5439 31.8449 61.5927 31.7948C61.6416 31.7446 61.6766 31.6827 61.6945 31.615C61.7124 31.5473 61.7125 31.4761 61.6947 31.4084C61.677 31.3406 61.6421 31.2786 61.5933 31.2283C57.9705 27.4279 53.7629 23.9608 48.7819 22.1287Z" fill="#F0F0F0"/>
<path d="M281.144 157.868L288.436 152.332L291.989 155.886L280.111 164.015L281.144 157.868Z" fill="#2F2E41"/>
<path d="M274.343 173.111H249.401L250.276 170.276C255.698 168.313 252.652 164.095 257.81 161.516C270.424 155.209 275.308 136.387 273.461 128.946L281.728 128.597C281.728 128.597 293.144 161.018 274.343 173.111Z" fill="#2F2E41"/>
<path d="M295.637 159.787C294.892 160.442 293.939 160.812 292.947 160.83C291.955 160.849 290.989 160.515 290.22 159.888L290.203 159.875L290.203 159.854C290.194 159.507 290.14 159.162 290.042 158.829C290.037 159.069 290.002 159.307 289.938 159.538L289.917 159.616L289.861 159.558C289.812 159.508 289.765 159.458 289.721 159.408C289.463 159.114 289.246 158.786 289.077 158.433C288.271 156.774 287.102 155.317 285.658 154.17C285.4 153.96 285.16 153.73 284.94 153.48C284.013 152.425 283.491 151.074 283.469 149.669C283.447 148.264 283.925 146.898 284.819 145.814C285.712 144.729 286.963 143.999 288.346 143.753C289.729 143.506 291.155 143.76 292.367 144.469L292.404 144.491L292.385 144.529C292.245 144.821 292.059 145.088 291.835 145.322C292.143 145.156 292.428 144.95 292.682 144.71L292.709 144.685L292.739 144.706C293.138 144.982 293.501 145.305 293.821 145.669L293.855 145.708C294.1 145.988 294.4 146.212 294.737 146.368C295.074 146.523 295.44 146.606 295.811 146.611C296.416 146.621 297.012 146.762 297.557 147.024C298.103 147.287 298.585 147.664 298.97 148.131C299.356 148.598 299.636 149.142 299.791 149.727C299.946 150.313 299.973 150.924 299.869 151.521L299.864 151.548L299.837 151.557C299.367 151.718 298.868 151.78 298.372 151.739C298.786 151.92 299.227 152.03 299.677 152.066L299.735 152.071L299.717 152.126C299.482 152.83 299.065 153.459 298.508 153.949L298.492 153.963L298.475 153.977C298.06 154.335 297.72 154.772 297.476 155.262C297.232 155.753 297.088 156.287 297.053 156.834C297.026 157.396 296.886 157.946 296.643 158.453C296.4 158.96 296.058 159.414 295.637 159.787V159.787Z" fill="#3F3D56"/>
<path opacity="0.15" d="M296.4 158.439C296.392 158.59 296.377 158.741 296.353 158.89C296.761 158.263 296.996 157.538 297.034 156.791C297.04 156.676 297.052 156.562 297.068 156.449C296.671 157.041 296.44 157.728 296.4 158.439V158.439Z" fill="black"/>
<path opacity="0.15" d="M297.719 153.345C298.052 153.489 298.402 153.588 298.762 153.639C298.9 153.493 299.028 153.338 299.144 153.173C298.685 153.327 298.201 153.385 297.719 153.345V153.345Z" fill="black"/>
<path opacity="0.15" d="M299.255 151.968C299.293 152.33 299.282 152.696 299.226 153.056C299.424 152.753 299.583 152.426 299.697 152.083L299.716 152.028L299.658 152.023C299.523 152.011 299.389 151.993 299.255 151.968V151.968Z" fill="black"/>
<path opacity="0.15" d="M298.868 147.99C298.482 147.552 298.009 147.2 297.479 146.955C296.95 146.71 296.375 146.578 295.791 146.567C295.42 146.563 295.054 146.48 294.717 146.325C294.381 146.169 294.08 145.944 293.836 145.665L293.802 145.626C293.482 145.262 293.118 144.939 292.72 144.663L292.69 144.642L292.663 144.667C292.408 144.907 292.124 145.113 291.816 145.279C292.04 145.045 292.225 144.778 292.366 144.486L292.385 144.448L292.348 144.426C291.544 143.956 290.64 143.682 289.71 143.627C288.78 143.572 287.85 143.738 286.997 144.111C286.143 144.484 285.389 145.054 284.798 145.773C284.206 146.493 283.793 147.342 283.592 148.252C283.979 147.572 284.497 146.976 285.116 146.498C285.735 146.02 286.443 145.67 287.198 145.467C287.954 145.265 288.742 145.214 289.517 145.318C290.292 145.423 291.039 145.68 291.714 146.075L291.751 146.096L291.732 146.134C291.591 146.426 291.406 146.694 291.182 146.927C291.49 146.761 291.774 146.556 292.029 146.316L292.056 146.29L292.086 146.311C292.484 146.587 292.848 146.91 293.168 147.274L293.202 147.314C293.446 147.593 293.747 147.818 294.083 147.973C294.42 148.129 294.786 148.211 295.157 148.216C296.127 148.232 297.061 148.585 297.801 149.213C298.54 149.841 299.039 150.706 299.211 151.661C299.416 151.624 299.619 151.575 299.818 151.513L299.845 151.505L299.85 151.478C299.958 150.86 299.927 150.225 299.757 149.622C299.587 149.018 299.283 148.46 298.868 147.99V147.99Z" fill="black"/>
<path d="M307.692 130.731C307.692 133.925 306.559 137.016 304.494 139.454C302.43 141.892 299.568 143.518 296.417 144.044L296.35 144.055L296.299 144.012C295.44 143.296 294.491 142.694 293.478 142.221C294.047 142.744 294.549 143.335 294.972 143.982L295.115 144.198L294.856 144.211C294.633 144.222 294.411 144.227 294.196 144.227C292.936 144.228 291.682 144.054 290.469 143.71C284.962 142.144 279.048 141.876 272.892 142.914C271.836 143.091 270.768 143.181 269.697 143.181C265.174 143.179 260.798 141.567 257.355 138.634C253.911 135.7 251.624 131.637 250.904 127.171C250.183 122.706 251.075 118.129 253.421 114.261C255.767 110.394 259.413 107.487 263.706 106.062L263.837 106.019L263.889 106.147C264.295 107.106 264.547 108.124 264.637 109.162C264.889 108.065 264.997 106.94 264.958 105.814L264.954 105.696L265.07 105.667C266.583 105.289 268.137 105.099 269.697 105.099L269.866 105.1C271.061 105.103 272.243 104.855 273.335 104.371C274.427 103.887 275.405 103.179 276.205 102.291C277.517 100.85 279.125 99.7093 280.92 98.9486C282.715 98.1879 284.653 97.8249 286.601 97.8848C288.549 97.9446 290.462 98.4258 292.206 99.2952C293.951 100.165 295.486 101.402 296.707 102.921L296.764 102.992L296.726 103.074C295.938 104.812 295.079 106.078 294.053 107.004C295.369 106.387 296.574 105.556 297.618 104.545L297.752 104.414L297.847 104.576C299.05 106.64 299.684 108.986 299.683 111.375L299.683 111.443C299.683 111.467 299.683 111.491 299.683 111.515C299.683 115.169 301.096 118.632 303.566 121.027C304.865 122.289 305.899 123.797 306.608 125.463C307.317 127.129 307.685 128.92 307.692 130.731Z" fill="#3F3D56"/>
<g opacity="0.15">
<path opacity="0.15" d="M291.193 98.8366C290.727 99.6088 290.155 100.311 289.492 100.923C290.441 100.477 291.333 99.9197 292.149 99.262C291.836 99.1078 291.517 98.966 291.193 98.8366Z" fill="black"/>
<path opacity="0.15" d="M299.005 114.946C299.739 115.658 300.39 116.451 300.945 117.31C300.109 115.493 299.678 113.515 299.683 111.515C299.683 111.491 299.683 111.467 299.683 111.443L299.683 111.375C299.684 108.986 299.05 106.64 297.847 104.576L297.753 104.414L297.618 104.545C296.874 105.264 296.048 105.893 295.156 106.419C295.35 109.637 296.72 112.672 299.005 114.946V114.946Z" fill="black"/>
<path opacity="0.15" d="M295.122 105.293L295.122 105.361C295.122 105.385 295.122 105.409 295.122 105.433C295.122 105.566 295.124 105.698 295.128 105.83C295.763 104.975 296.3 104.05 296.726 103.074L296.764 102.992L296.707 102.921C295.995 102.035 295.175 101.242 294.266 100.56C294.832 102.074 295.122 103.677 295.122 105.293V105.293Z" fill="black"/>
<path opacity="0.15" d="M303.566 121.027C302.917 120.396 302.34 119.694 301.846 118.935C302.73 120.819 303.166 122.883 303.12 124.964C303.074 127.045 302.546 129.088 301.578 130.931C300.611 132.774 299.229 134.368 297.542 135.588C295.856 136.808 293.909 137.621 291.856 137.963L291.789 137.974L291.738 137.931C290.879 137.214 289.93 136.612 288.916 136.14C289.486 136.662 289.988 137.254 290.411 137.901L290.554 138.117L290.295 138.129C290.072 138.14 289.85 138.146 289.635 138.146C288.375 138.147 287.121 137.973 285.908 137.629C280.401 136.062 274.487 135.794 268.331 136.833C267.275 137.01 266.207 137.099 265.136 137.099C260.47 137.103 255.967 135.385 252.488 132.276C254.031 135.535 256.468 138.29 259.514 140.22C262.56 142.151 266.091 143.177 269.697 143.181C270.768 143.181 271.836 143.091 272.892 142.914C279.048 141.876 284.962 142.144 290.469 143.71C291.682 144.054 292.936 144.228 294.196 144.227C294.411 144.227 294.633 144.222 294.856 144.211L295.115 144.198L294.972 143.982C294.549 143.335 294.047 142.744 293.478 142.222C294.491 142.694 295.44 143.296 296.299 144.012L296.35 144.055L296.417 144.044C298.883 143.634 301.186 142.547 303.07 140.904C304.954 139.261 306.344 137.126 307.085 134.739C307.827 132.352 307.89 129.806 307.269 127.385C306.647 124.963 305.365 122.762 303.566 121.027V121.027Z" fill="black"/>
</g>
<path d="M35.9774 150.575L26.0964 143.073L21.2802 147.89L37.3772 158.905L35.9774 150.575Z" fill="#2F2E41"/>
<path d="M45.1933 171.232H78.9942L77.8087 167.391C70.4612 164.731 74.5883 159.014 67.5992 155.519C50.5041 146.971 43.8859 121.465 46.3892 111.382L35.1864 110.908C35.1864 110.908 19.7154 154.844 45.1933 171.232Z" fill="#2F2E41"/>
<path d="M14.4175 149.174C14.3702 148.433 14.1754 147.709 13.8446 147.044C13.5137 146.38 13.0534 145.788 12.4907 145.303C12.4831 145.296 12.4755 145.29 12.4678 145.283L12.4463 145.264C11.6911 144.6 11.1258 143.748 10.8081 142.794L10.7831 142.719L10.8619 142.713C11.4717 142.664 12.0691 142.514 12.63 142.27C11.9583 142.326 11.2824 142.241 10.645 142.023L10.6085 142.011L10.6021 141.974C10.4612 141.166 10.4971 140.337 10.7072 139.544C10.9174 138.751 11.2968 138.013 11.8195 137.38C12.3421 136.748 12.9955 136.236 13.7348 135.881C14.474 135.525 15.2815 135.334 16.1018 135.32C16.6045 135.314 17.1003 135.202 17.5568 134.991C18.0133 134.78 18.4203 134.476 18.7512 134.097L18.7979 134.044C19.2315 133.551 19.7237 133.113 20.2636 132.739L20.3049 132.711L20.3413 132.745C20.686 133.07 21.0717 133.349 21.4885 133.574C21.1853 133.257 20.9339 132.894 20.7436 132.499L20.7176 132.447L20.7677 132.418C22.4113 131.457 24.3432 131.113 26.2176 131.447C28.0919 131.781 29.7863 132.771 30.9972 134.24C32.2081 135.709 32.8565 137.561 32.8263 139.465C32.7962 141.368 32.0893 143.199 30.8325 144.629C30.535 144.967 30.2098 145.28 29.8603 145.564C27.9028 147.119 26.3191 149.093 25.2261 151.341C24.9978 151.819 24.7041 152.264 24.3535 152.662C24.2939 152.73 24.2304 152.798 24.1648 152.866L24.0889 152.944L24.0606 152.839C23.9735 152.526 23.9261 152.203 23.9194 151.877C23.7869 152.329 23.7135 152.796 23.7012 153.267L23.7004 153.295L23.6785 153.313C22.8634 153.978 21.8796 154.404 20.8367 154.542C19.7938 154.681 18.7329 154.527 17.7724 154.098C16.8119 153.669 15.9896 152.981 15.3972 152.112C14.8048 151.242 14.4656 150.225 14.4175 149.174H14.4175Z" fill="#3F3D56"/>
<path opacity="0.15" d="M15.303 151.35C15.3133 151.554 15.3346 151.758 15.3669 151.96C14.8134 151.11 14.4949 150.129 14.4438 149.116C14.4363 148.961 14.42 148.806 14.3982 148.652C14.936 149.454 15.2485 150.386 15.303 151.35Z" fill="black"/>
<path opacity="0.15" d="M13.5154 144.446C13.0643 144.641 12.5892 144.775 12.1025 144.845C11.915 144.647 11.742 144.436 11.5848 144.213C12.2059 144.421 12.8628 144.5 13.5154 144.446V144.446Z" fill="black"/>
<path opacity="0.15" d="M11.4332 142.58C11.383 143.071 11.3966 143.567 11.4736 144.054C11.2042 143.644 10.9893 143.201 10.8343 142.736L10.8093 142.661L10.8881 142.654C11.0709 142.639 11.2529 142.614 11.4332 142.58Z" fill="black"/>
<path opacity="0.15" d="M11.9589 137.189C12.4818 136.596 13.1226 136.118 13.8404 135.786C14.5582 135.454 15.3373 135.275 16.128 135.261C16.6308 135.255 17.1266 135.143 17.5831 134.932C18.0396 134.722 18.4466 134.417 18.7775 134.039L18.8242 133.985C19.2577 133.492 19.75 133.054 20.2899 132.68L20.3311 132.652L20.3675 132.686C20.7123 133.011 21.0979 133.29 21.5148 133.515C21.2116 133.198 20.9602 132.836 20.7699 132.441L20.7439 132.389L20.7939 132.36C21.8836 131.722 23.1085 131.351 24.3689 131.277C25.6293 131.202 26.8893 131.427 28.0462 131.933C29.2031 132.438 30.2241 133.21 31.0259 134.185C31.8277 135.161 32.3876 136.312 32.6599 137.545C32.1355 136.623 31.4335 135.815 30.5946 135.168C29.7557 134.52 28.7966 134.045 27.7728 133.77C26.749 133.496 25.681 133.427 24.6305 133.569C23.58 133.71 22.568 134.058 21.6532 134.594L21.6031 134.623L21.6291 134.675C21.8194 135.07 22.0708 135.432 22.374 135.749C21.9572 135.524 21.5715 135.245 21.2268 134.92L21.1904 134.886L21.1491 134.914C20.6092 135.288 20.117 135.726 19.6834 136.219L19.6367 136.273C19.3058 136.651 18.8988 136.956 18.4423 137.166C17.9858 137.377 17.49 137.489 16.9873 137.495C15.6727 137.518 14.4066 137.995 13.4047 138.846C12.4029 139.698 11.7274 140.87 11.4934 142.164C11.2155 142.114 10.941 142.047 10.6713 141.964L10.6348 141.953L10.6283 141.915C10.4808 141.078 10.5238 140.219 10.7542 139.4C10.9846 138.582 11.3963 137.826 11.9589 137.189V137.189Z" fill="black"/>
<path d="M5.59213 100.651C8.9396 97.4046 10.8545 92.7113 10.8545 87.7595C10.8545 87.7269 10.8545 87.6941 10.8542 87.6615L10.854 87.5693C10.8527 84.3322 11.7113 81.1529 13.3419 78.3565L13.47 78.1365L13.6527 78.3137C15.0677 79.6839 16.7 80.8101 18.4832 81.6466C17.0936 80.3919 15.9294 78.6761 14.8608 76.3208L14.8099 76.2091L14.887 76.1137C16.5414 74.0545 18.6222 72.3781 20.9864 71.1999C23.3505 70.0217 25.9418 69.3696 28.5821 69.2885C31.2223 69.2074 33.8488 69.6992 36.2808 70.7301C38.7128 71.761 40.8926 73.3065 42.6702 75.2603C43.7543 76.4626 45.0797 77.4229 46.5598 78.0787C48.0399 78.7344 49.6417 79.0708 51.2605 79.066L51.4894 79.0651C53.6034 79.0647 55.7094 79.3231 57.7606 79.8343L57.9171 79.8735L57.9115 80.0345C57.8588 81.5591 58.0052 83.0841 58.3472 84.5709C58.4685 83.1641 58.8106 81.7852 59.361 80.4849L59.431 80.3117L59.6084 80.3705C65.4266 82.3012 70.3675 86.2399 73.5464 91.4814C76.7253 96.7229 77.9346 102.925 76.9578 108.977C75.981 115.028 72.8818 120.535 68.2153 124.51C63.5487 128.485 57.6195 130.669 51.4894 130.672C50.0388 130.672 48.5908 130.551 47.1602 130.31C38.8175 128.903 30.8031 129.266 23.3398 131.39C21.6969 131.856 19.9972 132.091 18.2894 132.09C17.9988 132.09 17.6978 132.083 17.3948 132.068L17.0439 132.051L17.2386 131.758C17.8111 130.881 18.4913 130.08 19.2633 129.372C17.8894 130.012 16.6044 130.828 15.4403 131.799L15.3704 131.857L15.28 131.842C11.9385 131.286 8.8171 129.813 6.26424 127.586C3.71137 125.359 1.82743 122.467 0.82265 119.232C-0.182132 115.997 -0.268233 112.547 0.573955 109.265C1.41614 105.984 3.15349 103.002 5.59213 100.651V100.651Z" fill="#3F3D56"/>
<g opacity="0.15">
<path opacity="0.15" d="M22.3598 70.5783C22.9904 71.6248 23.7663 72.5766 24.6642 73.4052C23.3785 72.8016 22.1697 72.0461 21.0637 71.1549C21.488 70.9459 21.92 70.7537 22.3598 70.5783Z" fill="black"/>
<path opacity="0.15" d="M11.7732 92.4091C10.7784 93.3744 9.8962 94.4492 9.14331 95.6129C10.2764 93.1501 10.8602 90.4704 10.8544 87.7595C10.8544 87.7269 10.8544 87.6941 10.8542 87.6615L10.8539 87.5693C10.8527 84.3322 11.7113 81.1528 13.3418 78.3564L13.47 78.1365L13.6526 78.3136C14.661 79.2883 15.7806 80.1408 16.9884 80.8537C16.677 85.3065 14.818 89.4566 11.7732 92.4091Z" fill="black"/>
<path opacity="0.15" d="M17.0351 79.3279L17.0353 79.4201C17.0355 79.4527 17.0355 79.4855 17.0355 79.5181C17.0355 79.6976 17.0323 79.8767 17.0273 80.0555C16.1659 78.8967 15.4391 77.6438 14.8608 76.3208L14.8099 76.2091L14.887 76.1137C15.8519 74.913 16.9634 73.838 18.1957 72.9137C17.4284 74.9652 17.0353 77.1376 17.0351 79.3279Z" fill="black"/>
<path opacity="0.15" d="M5.59212 100.651C6.47199 99.7947 7.25383 98.8434 7.92317 97.8145C6.72448 100.368 6.13342 103.165 6.19632 105.985C6.25922 108.806 6.97437 111.573 8.28572 114.071C9.59708 116.569 11.469 118.729 13.7549 120.382C16.0407 122.036 18.6783 123.137 21.4611 123.601L21.5515 123.615L21.6214 123.557C22.7854 122.586 24.0705 121.771 25.4444 121.13C24.6724 121.838 23.9922 122.64 23.4197 123.517L23.225 123.81L23.5759 123.826C23.8789 123.841 24.1799 123.849 24.4704 123.849C26.1782 123.85 27.878 123.614 29.5209 123.148C36.9842 121.025 44.9986 120.662 53.3413 122.069C54.7718 122.309 56.2199 122.43 57.6705 122.43C63.9935 122.435 70.0962 120.108 74.8104 115.894C72.7192 120.311 69.418 124.044 65.2899 126.66C61.1619 129.276 56.3764 130.667 51.4894 130.672C50.0388 130.672 48.5908 130.551 47.1603 130.31C38.8175 128.903 30.8031 129.266 23.3399 131.39C21.6969 131.856 19.9972 132.091 18.2894 132.09C17.9988 132.09 17.6978 132.083 17.3948 132.068L17.0439 132.051L17.2386 131.758C17.8111 130.881 18.4913 130.08 19.2633 129.372C17.8894 130.012 16.6043 130.828 15.4403 131.799L15.3704 131.857L15.28 131.842C11.9385 131.286 8.8171 129.813 6.26423 127.586C3.71137 125.359 1.82743 122.467 0.82265 119.232C-0.182132 115.997 -0.268233 112.547 0.573954 109.265C1.41614 105.984 3.15349 103.002 5.59212 100.651V100.651Z" fill="black"/>
</g>
<path d="M123.558 50.9994C124.299 50.9994 124.9 50.3985 124.9 49.6573C124.9 48.9161 124.299 48.3152 123.558 48.3152C122.816 48.3152 122.215 48.9161 122.215 49.6573C122.215 50.3985 122.816 50.9994 123.558 50.9994Z" fill="white"/>
<path d="M223.946 82.6727C224.391 82.6727 224.751 82.3122 224.751 81.8674C224.751 81.4227 224.391 81.0622 223.946 81.0622C223.501 81.0622 223.141 81.4227 223.141 81.8674C223.141 82.3122 223.501 82.6727 223.946 82.6727Z" fill="white"/>
<path d="M239.514 46.4363C239.959 46.4363 240.319 46.0758 240.319 45.631C240.319 45.1863 239.959 44.8258 239.514 44.8258C239.07 44.8258 238.709 45.1863 238.709 45.631C238.709 46.0758 239.07 46.4363 239.514 46.4363Z" fill="white"/>
<path d="M95.3737 22.2787C95.8185 22.2787 96.179 21.9182 96.179 21.4734C96.179 21.0287 95.8185 20.6682 95.3737 20.6682C94.929 20.6682 94.5685 21.0287 94.5685 21.4734C94.5685 21.9182 94.929 22.2787 95.3737 22.2787Z" fill="white"/>
<path d="M87.3212 54.7573C87.766 54.7573 88.1265 54.3967 88.1265 53.952C88.1265 53.5073 87.766 53.1467 87.3212 53.1467C86.8765 53.1467 86.516 53.5073 86.516 53.952C86.516 54.3967 86.8765 54.7573 87.3212 54.7573Z" fill="white"/>
<path d="M48.1322 46.4363C48.5769 46.4363 48.9374 46.0758 48.9374 45.631C48.9374 45.1863 48.5769 44.8258 48.1322 44.8258C47.6874 44.8258 47.3269 45.1863 47.3269 45.631C47.3269 46.0758 47.6874 46.4363 48.1322 46.4363Z" fill="white"/>
<path d="M186.904 53.1467C187.349 53.1467 187.71 52.7862 187.71 52.3415C187.71 51.8968 187.349 51.5362 186.904 51.5362C186.46 51.5362 186.099 51.8968 186.099 52.3415C186.099 52.7862 186.46 53.1467 186.904 53.1467Z" fill="white"/>
<path d="M269.309 27.1102C269.753 27.1102 270.114 26.7497 270.114 26.3049C270.114 25.8602 269.753 25.4997 269.309 25.4997C268.864 25.4997 268.503 25.8602 268.503 26.3049C268.503 26.7497 268.864 27.1102 269.309 27.1102Z" fill="white"/>
<path d="M81.094 97.7216C80.0742 95.8332 79.9318 93.3583 81.184 91.6154C81.8034 93.8656 83.1987 95.8242 85.1231 97.1447C85.8671 97.6512 86.7473 98.1372 87.0019 99.0005C87.1358 99.5509 87.0533 100.132 86.7714 100.623C86.49 101.108 86.1477 101.555 85.7527 101.953L85.7167 102.088C83.8704 100.994 82.1139 99.6099 81.094 97.7216Z" fill="#3F3D56"/>
<path d="M237.313 151.137C236.293 149.248 236.151 146.774 237.403 145.031C238.023 147.281 239.418 149.239 241.342 150.56C242.086 151.066 242.967 151.552 243.221 152.416C243.355 152.966 243.272 153.547 242.991 154.038C242.709 154.523 242.367 154.97 241.972 155.368L241.936 155.503C240.09 154.409 238.333 153.025 237.313 151.137Z" fill="#3F3D56"/>
<path d="M151.688 107.385C150.668 105.496 150.526 103.021 151.778 101.278C152.397 103.529 153.793 105.487 155.717 106.808C156.461 107.314 157.341 107.8 157.596 108.664C157.73 109.214 157.647 109.795 157.365 110.286C157.084 110.771 156.742 111.218 156.347 111.616L156.311 111.751C154.464 110.657 152.708 109.273 151.688 107.385Z" fill="#3F3D56"/>
<path d="M70.0889 138.521C69.069 136.633 68.9266 134.158 70.1789 132.415C70.7982 134.665 72.1936 136.624 74.118 137.944C74.862 138.451 75.7422 138.937 75.9967 139.8C76.1306 140.35 76.0481 140.931 75.7663 141.422C75.4849 141.907 75.1426 142.354 74.7476 142.752L74.7115 142.888C72.8653 141.793 71.1088 140.409 70.0889 138.521Z" fill="#3F3D56"/>
<path d="M59.8889 161.605C58.8691 159.717 58.7267 157.242 59.9789 155.499C60.5983 157.749 61.9936 159.708 63.918 161.028C64.662 161.535 65.5423 162.021 65.7968 162.884C65.9307 163.434 65.8482 164.015 65.5663 164.506C65.285 164.991 64.9426 165.438 64.5477 165.836L64.5116 165.971C62.6653 164.877 60.9088 163.493 59.8889 161.605Z" fill="#3F3D56"/>
<path d="M229.314 18.2524H226.362V176.351H229.314V18.2524Z" fill="#3F3D56"/>
<path d="M227.972 5.36835H227.972C222.635 5.36835 218.309 9.69463 218.309 15.0314V15.0314C218.309 20.3681 222.635 24.6944 227.972 24.6944H227.972C233.309 24.6944 237.635 20.3681 237.635 15.0314V15.0314C237.635 9.69463 233.309 5.36835 227.972 5.36835Z" fill="#FF6582"/>
<path d="M105.167 100.56C105.167 103.641 108.526 106.379 111.607 106.379C114.688 106.379 116.323 103.641 116.323 100.56C116.323 99.0807 115.736 97.6618 114.689 96.6157C113.643 95.5695 112.224 94.9818 110.745 94.9818C109.265 94.9818 107.847 95.5695 106.8 96.6157C105.754 97.6618 105.167 99.0807 105.167 100.56H105.167Z" fill="#2F2E41"/>
<path d="M106.957 130.046L117.317 129.647L117.914 118.889H105.961L106.957 130.046Z" fill="#FFB8B8"/>
<path d="M100.381 137.429C100.561 137.266 100.703 137.065 100.797 136.842C100.891 136.618 100.935 136.377 100.926 136.134C100.916 135.892 100.854 135.654 100.743 135.439C100.632 135.223 100.475 135.034 100.283 134.886L102.164 129.297L99.2012 130.08L97.8693 135.267C97.6412 135.606 97.5454 136.017 97.5999 136.422C97.6544 136.826 97.8555 137.197 98.1651 137.463C98.4747 137.73 98.8713 137.873 99.2797 137.867C99.6881 137.861 100.08 137.705 100.381 137.429V137.429Z" fill="#FFB6B6"/>
<path d="M111.597 106.38C113.776 106.38 115.542 104.614 115.542 102.435C115.542 100.256 113.776 98.4897 111.597 98.4897C109.418 98.4897 107.652 100.256 107.652 102.435C107.652 104.614 109.418 106.38 111.597 106.38Z" fill="#FFB8B8"/>
<path d="M111.694 102.038L108.813 101.962C108.742 101.96 108.673 101.939 108.613 101.902C108.553 101.865 108.503 101.812 108.47 101.75L107.506 99.9639C107.461 99.8803 107.447 99.7835 107.467 99.6906C107.486 99.5977 107.538 99.5146 107.613 99.4562L111.382 96.5093C111.429 96.4725 111.484 96.4466 111.542 96.4336C111.6 96.4206 111.661 96.4207 111.719 96.4341L114.764 97.1277C114.833 97.1437 114.898 97.178 114.95 97.2273C115.002 97.2765 115.04 97.3388 115.061 97.4077L116.253 101.513C116.271 101.575 116.273 101.64 116.261 101.703C116.249 101.766 116.222 101.825 116.182 101.875C116.142 101.925 116.091 101.965 116.033 101.992C115.974 102.018 115.91 102.031 115.846 102.027L114.354 101.953C114.273 101.948 114.195 101.92 114.131 101.871C114.066 101.821 114.018 101.754 113.992 101.677L113.93 101.49C113.927 101.479 113.92 101.47 113.91 101.464C113.901 101.459 113.89 101.456 113.879 101.458C113.868 101.46 113.858 101.466 113.851 101.474C113.844 101.482 113.84 101.493 113.84 101.504C113.84 101.559 113.828 101.613 113.807 101.663C113.785 101.713 113.754 101.758 113.715 101.796C113.675 101.833 113.628 101.862 113.577 101.881C113.526 101.9 113.472 101.909 113.417 101.906L112.923 101.881C112.833 101.877 112.748 101.843 112.68 101.784C112.612 101.726 112.566 101.646 112.548 101.558L112.335 100.486C112.333 100.475 112.327 100.466 112.318 100.459C112.31 100.452 112.299 100.449 112.288 100.449C112.277 100.449 112.266 100.454 112.258 100.461C112.25 100.469 112.245 100.479 112.244 100.49L112.104 101.682C112.093 101.78 112.046 101.871 111.973 101.937C111.899 102.002 111.804 102.038 111.705 102.038L111.694 102.038Z" fill="#2F2E41"/>
<path d="M108.819 107.389L113.92 107.457L115.58 109.565L118.253 110.196L118.948 114.21C119.295 116.216 118.926 117.487 117.906 119.25L117.784 122.717L117.919 122.963C117.986 123.084 118.005 123.225 117.974 123.36C117.943 123.495 117.863 123.614 117.749 123.693V123.693C117.845 123.934 117.856 124.201 117.781 124.449L117.715 124.666C117.715 124.666 117.525 126.186 106.755 124.588C106.526 124.554 106.315 124.447 106.153 124.282C105.991 124.117 105.888 123.905 105.857 123.676V123.676C105.74 123.558 105.663 123.406 105.637 123.242C105.611 123.078 105.636 122.91 105.711 122.762L105.733 122.718L105.622 122.588C105.499 122.443 105.428 122.261 105.42 122.071C105.412 121.881 105.468 121.694 105.579 121.539V121.539L104.031 110.466L107.228 109.471L108.819 107.389Z" fill="#2F2E41"/>
<path d="M105.308 111.526L104.031 110.466C104.031 110.466 102.896 110.802 102.103 113.038C101.31 115.274 98.5894 132.237 98.5894 132.237L101.777 130.643L106.297 118.18L105.308 111.526Z" fill="#2F2E41"/>
<path d="M133.666 129.586C133.426 129.621 133.181 129.604 132.949 129.535C132.716 129.466 132.502 129.347 132.32 129.186C132.139 129.025 131.995 128.826 131.899 128.603C131.802 128.38 131.756 128.139 131.763 127.897L126.249 125.805L128.734 124.012L133.589 126.273C133.995 126.312 134.374 126.498 134.652 126.797C134.93 127.096 135.089 127.487 135.099 127.895C135.108 128.303 134.968 128.701 134.704 129.013C134.44 129.324 134.071 129.528 133.666 129.586V129.586Z" fill="#FFB6B6"/>
<path d="M116.772 111.429L117.638 110.014C117.638 110.014 118.821 109.964 120.294 111.824C121.049 112.777 125.944 120.955 125.944 120.955L130.47 124.727L126.764 126.051L122.397 124.198L117.5 116.125L116.772 111.429Z" fill="#2F2E41"/>
<path d="M116.911 178.984H119.376L120.549 169.475L116.91 169.475L116.911 178.984Z" fill="#FFB6B6"/>
<path d="M95.3304 177.451L97.7159 178.072L101.249 169.167L97.7285 168.249L95.3304 177.451Z" fill="#FFB6B6"/>
<path d="M116.299 177.768L120.196 177.535V179.205L123.901 181.763C124.084 181.89 124.222 182.071 124.295 182.282C124.367 182.492 124.37 182.72 124.304 182.932C124.238 183.144 124.106 183.33 123.927 183.462C123.748 183.594 123.531 183.665 123.309 183.665H118.669L117.869 182.013L117.557 183.665H115.808L116.299 177.768Z" fill="#2F2E41"/>
<path d="M94.8295 176.063L98.6591 176.821L98.238 178.437L101.178 181.848C101.323 182.016 101.411 182.226 101.428 182.448C101.445 182.67 101.391 182.891 101.273 183.08C101.155 183.269 100.981 183.415 100.774 183.497C100.567 183.58 100.34 183.594 100.125 183.538L95.6353 182.367L95.278 180.568L94.5593 182.087L92.8666 181.646L94.8295 176.063Z" fill="#2F2E41"/>
<path d="M95.6329 171.471L102.859 156.619L103.426 139.04C101.862 136.136 106.468 129.728 106.468 129.728V127.247L117.72 129.369C120.021 135.646 121.137 142.296 121.011 148.98L120.557 173.009H120.7C120.817 173.008 120.933 173.031 121.041 173.076C121.149 173.12 121.247 173.186 121.33 173.269C121.413 173.351 121.478 173.449 121.523 173.557C121.568 173.666 121.591 173.781 121.591 173.898C121.591 174.015 121.568 174.131 121.523 174.239C121.478 174.347 121.413 174.446 121.33 174.528C121.247 174.611 121.149 174.676 121.041 174.721C120.933 174.766 120.817 174.788 120.7 174.788H116.25C116.133 174.788 116.017 174.766 115.909 174.721C115.801 174.676 115.703 174.611 115.62 174.528C115.537 174.446 115.472 174.347 115.427 174.239C115.382 174.131 115.359 174.015 115.359 173.898C115.359 173.781 115.382 173.666 115.427 173.557C115.472 173.449 115.537 173.351 115.62 173.269C115.703 173.186 115.801 173.12 115.909 173.076C116.017 173.031 116.133 173.008 116.25 173.009H116.365L113.171 142.44L109.457 157.525L100.482 171.414C100.711 171.432 100.924 171.538 101.076 171.709C101.229 171.881 101.309 172.105 101.3 172.334C101.29 172.564 101.193 172.781 101.027 172.94C100.861 173.099 100.64 173.187 100.41 173.186H95.961C95.7541 173.187 95.5536 173.115 95.394 172.983C95.2345 172.851 95.1259 172.668 95.087 172.465C95.0481 172.261 95.0814 172.051 95.181 171.869C95.2807 171.688 95.4405 171.547 95.6329 171.471V171.471Z" fill="#2F2E41"/>
<path d="M95.5346 101.139C97.1972 99.5129 98.2437 97.3741 99.6206 95.4996C100.998 93.6252 102.937 91.9076 105.26 91.8034C106.034 91.7457 106.805 91.9467 107.452 92.3749C107.771 92.5926 108.027 92.8893 108.197 93.2359C108.367 93.5825 108.443 93.9673 108.42 94.3524C108.665 93.6635 109.761 93.5082 110.188 94.1019C110.615 94.6956 110.119 95.6853 109.388 95.6986L109.316 95.415C108.955 95.959 108.489 96.4253 107.945 96.7866C107.401 97.1478 106.79 97.3966 106.148 97.5183C106.012 97.5426 105.872 97.5312 105.742 97.4853C105.612 97.4393 105.496 97.3604 105.405 97.2562C105.314 97.152 105.252 97.0261 105.225 96.8907C105.197 96.7553 105.205 96.6151 105.248 96.4838C102.737 96.9816 103.534 101.664 102.042 103.744C100.549 105.824 96.2833 105.622 93.7664 106.089C91.336 106.54 88.9729 105.19 86.8683 103.894C88.4273 104.13 90.02 104.005 91.5228 103.528C93.0257 103.05 94.3984 102.233 95.5346 101.139V101.139Z" fill="#2F2E41"/>
<path d="M189.462 157.67L181.889 154.329V151.456L184.588 151.441C185.007 151.438 185.414 151.305 185.753 151.059C186.092 150.813 186.346 150.467 186.478 150.07L188.375 144.381C188.475 144.08 188.503 143.759 188.455 143.445C188.407 143.131 188.285 142.833 188.099 142.575C187.913 142.317 187.669 142.108 187.386 141.963C187.103 141.818 186.79 141.743 186.473 141.743H181.889V139.069H187.643C188.097 139.069 188.537 138.915 188.892 138.633C189.247 138.35 189.496 137.956 189.597 137.514L190.903 131.833C190.971 131.539 190.971 131.234 190.904 130.94C190.838 130.646 190.706 130.371 190.518 130.135C190.33 129.899 190.091 129.709 189.82 129.578C189.548 129.447 189.251 129.379 188.949 129.379H181.889V128.711C181.889 128.356 181.748 128.016 181.497 127.766C181.246 127.515 180.906 127.374 180.552 127.374C180.197 127.374 179.857 127.515 179.607 127.766C179.356 128.016 179.215 128.356 179.215 128.711V129.379H131.878V128.711C131.878 128.356 131.737 128.016 131.486 127.766C131.236 127.515 130.896 127.374 130.541 127.374C130.187 127.374 129.847 127.515 129.596 127.766C129.346 128.016 129.205 128.356 129.205 128.711V129.379H123.592C123.29 129.379 122.993 129.447 122.721 129.578C122.45 129.709 122.211 129.899 122.023 130.135C121.836 130.371 121.704 130.646 121.637 130.94C121.57 131.234 121.57 131.539 121.638 131.833L122.944 137.514C123.045 137.956 123.294 138.35 123.649 138.633C124.004 138.915 124.444 139.069 124.898 139.069H129.205V141.743H126.068C125.752 141.743 125.441 141.817 125.159 141.96C124.878 142.104 124.634 142.312 124.448 142.567C124.262 142.822 124.139 143.118 124.089 143.43C124.039 143.742 124.063 144.062 124.16 144.362L126.096 150.369C126.226 150.774 126.483 151.128 126.828 151.378C127.173 151.628 127.589 151.761 128.015 151.759L129.205 151.752V154.329L123.079 157.67C122.815 157.67 122.555 157.722 122.311 157.823C122.068 157.924 121.847 158.071 121.661 158.257C121.475 158.444 121.327 158.665 121.226 158.908C121.126 159.151 121.074 159.412 121.074 159.675V159.675C121.074 160.207 121.285 160.717 121.661 161.093C122.037 161.469 122.547 161.68 123.079 161.68H129.205V176.382C129.205 176.737 129.346 177.077 129.596 177.327C129.847 177.578 130.187 177.719 130.541 177.719C130.896 177.719 131.236 177.578 131.486 177.327C131.737 177.077 131.878 176.737 131.878 176.382V161.68H179.215V176.382C179.215 176.737 179.356 177.077 179.607 177.327C179.857 177.578 180.197 177.719 180.552 177.719C180.906 177.719 181.246 177.578 181.497 177.327C181.748 177.077 181.889 176.737 181.889 176.382V161.68H189.462C189.994 161.68 190.504 161.469 190.88 161.093C191.256 160.717 191.467 160.207 191.467 159.675C191.467 159.412 191.416 159.151 191.315 158.908C191.214 158.665 191.066 158.444 190.88 158.257C190.694 158.071 190.473 157.924 190.23 157.823C189.986 157.722 189.726 157.67 189.462 157.67ZM131.878 139.069H179.215V141.743H131.878V139.069ZM131.878 154.329V151.737L179.215 151.471V154.329L131.878 154.329Z" fill="#3F3D56"/>
</svg>
