<svg width="146" height="123" viewBox="0 0 146 123" fill="none" xmlns="http://www.w3.org/2000/svg">
<path fill-rule="evenodd" clip-rule="evenodd" d="M70.3327 3.54578C85.126 2.07231 100.63 -3.49668 113.841 3.30285C127.783 10.4786 136.311 25.1904 141.243 40.0425C146.193 54.9537 147.412 71.5337 141.302 86.0107C135.441 99.8956 122.668 109.603 109.091 116.212C97.1153 122.042 83.6467 119.968 70.3327 120.559C56.2149 121.186 41.5696 126.175 28.9825 119.769C15.5183 112.917 5.11012 99.9734 1.24854 85.4C-2.51607 71.1926 2.89776 56.5615 8.64905 43.0318C13.9603 30.5372 21.2593 18.7148 32.7119 11.3836C43.7631 4.30935 57.2653 4.84734 70.3327 3.54578Z" fill="#C4C4C4" fill-opacity="0.12"/>
<path d="M118.293 51.6828C118.261 51.6828 118.228 51.6727 118.201 51.6539L73.5515 20.5798C73.4156 20.4857 73.2541 20.4354 73.0888 20.4357C72.9235 20.4359 72.7622 20.4868 72.6266 20.5814L28.2984 51.6536C28.2633 51.6782 28.2199 51.6878 28.1778 51.6804C28.1356 51.673 28.0981 51.6492 28.0735 51.6141C28.0489 51.5791 28.0392 51.5357 28.0466 51.4936C28.054 51.4514 28.0779 51.4139 28.1129 51.3894L72.4412 20.3172C72.631 20.1848 72.8568 20.1136 73.0883 20.1132C73.3198 20.1128 73.5458 20.1833 73.736 20.315L118.386 51.389C118.414 51.4087 118.435 51.4368 118.446 51.4693C118.457 51.5018 118.458 51.537 118.448 51.5698C118.437 51.6026 118.417 51.6312 118.389 51.6515C118.361 51.6719 118.328 51.6828 118.293 51.6828L118.293 51.6828Z" fill="#3F3D56"/>
<path d="M30.8315 52.7843L73.1328 21.4554L115.755 55.0135L75.3124 78.972L53.3555 73.9706L30.8315 52.7843Z" fill="#E6E6E6"/>
<path d="M55.2087 93.7702H34.3108C34.1825 93.7704 34.0554 93.7453 33.9368 93.6963C33.8182 93.6473 33.7105 93.5755 33.6197 93.4849C33.5289 93.3943 33.4568 93.2867 33.4077 93.1682C33.3586 93.0498 33.3333 92.9228 33.3333 92.7945C33.3333 92.6663 33.3586 92.5393 33.4077 92.4209C33.4568 92.3024 33.5289 92.1948 33.6197 92.1042C33.7105 92.0136 33.8182 91.9417 33.9368 91.8928C34.0554 91.8438 34.1825 91.8187 34.3108 91.8189H55.2087C55.337 91.8187 55.4641 91.8438 55.5827 91.8928C55.7013 91.9417 55.8091 92.0136 55.8999 92.1042C55.9907 92.1948 56.0627 92.3024 56.1119 92.4209C56.161 92.5393 56.1863 92.6663 56.1863 92.7945C56.1863 92.9228 56.161 93.0498 56.1119 93.1682C56.0627 93.2867 55.9907 93.3943 55.8999 93.4849C55.8091 93.5755 55.7013 93.6473 55.5827 93.6963C55.4641 93.7453 55.337 93.7704 55.2087 93.7702V93.7702Z" fill="#00BFA6"/>
<path d="M41.8085 89.5754H34.3108C34.1825 89.5756 34.0554 89.5505 33.9368 89.5015C33.8182 89.4526 33.7105 89.3807 33.6197 89.2901C33.5289 89.1995 33.4568 89.0919 33.4077 88.9734C33.3586 88.855 33.3333 88.728 33.3333 88.5998C33.3333 88.4715 33.3586 88.3446 33.4077 88.2261C33.4568 88.1077 33.5289 88.0001 33.6197 87.9094C33.7105 87.8188 33.8182 87.747 33.9368 87.698C34.0554 87.6491 34.1825 87.624 34.3108 87.6241H41.8085C41.9369 87.624 42.0639 87.6491 42.1825 87.698C42.3011 87.747 42.4089 87.8188 42.4997 87.9094C42.5905 88.0001 42.6625 88.1077 42.7117 88.2261C42.7608 88.3446 42.7861 88.4715 42.7861 88.5998C42.7861 88.728 42.7608 88.855 42.7117 88.9734C42.6625 89.0919 42.5905 89.1995 42.4997 89.2901C42.4089 89.3807 42.3011 89.4526 42.1825 89.5015C42.0639 89.5505 41.9369 89.5756 41.8085 89.5754Z" fill="#00BFA6"/>
<path d="M73.7275 70.2341C73.5687 70.2343 73.4113 70.2035 73.2643 70.1434L47.1758 59.326V25.4655C47.1761 25.1661 47.2953 24.879 47.5072 24.6673C47.719 24.4556 48.0063 24.3365 48.3059 24.3362H98.3548C98.6544 24.3365 98.9416 24.4556 99.1535 24.6673C99.3654 24.879 99.4846 25.1661 99.4849 25.4655V59.3496L99.4359 59.3706L74.2047 70.1381C74.0536 70.2016 73.8914 70.2342 73.7275 70.2341Z" fill="white"/>
<path d="M73.7274 70.3147C73.558 70.3149 73.3902 70.2821 73.2334 70.2181L47.095 59.3798V25.4655C47.0953 25.1447 47.223 24.8371 47.45 24.6103C47.677 24.3834 47.9848 24.2558 48.3058 24.2555H98.3547C98.6757 24.2558 98.9835 24.3834 99.2105 24.6103C99.4375 24.8371 99.5652 25.1447 99.5655 25.4655V59.4028L74.2363 70.2123C74.0752 70.28 73.9022 70.3148 73.7274 70.3147V70.3147ZM47.4179 59.1643L73.3566 69.9198C73.5985 70.0179 73.8695 70.0162 74.1102 69.9153L99.2426 59.1898V25.4655C99.2424 25.2302 99.1487 25.0047 98.9823 24.8383C98.8158 24.672 98.5901 24.5784 98.3547 24.5781H48.3058C48.0704 24.5784 47.8447 24.672 47.6783 24.8383C47.5118 25.0047 47.4182 25.2302 47.4179 25.4655L47.4179 59.1643Z" fill="#3F3D56"/>
<path d="M117.971 51.3601H117.938L99.4041 59.2689L74.0455 70.0898C73.9464 70.1314 73.8401 70.1531 73.7326 70.1537C73.6251 70.1542 73.5185 70.1336 73.419 70.093L47.2564 59.2463L28.2669 51.373L28.2379 51.3601H28.2056C27.9059 51.3605 27.6187 51.4796 27.4068 51.6913C27.1949 51.903 27.0758 52.1901 27.0754 52.4895V101.536C27.0758 101.835 27.1949 102.122 27.4068 102.334C27.6187 102.546 27.9059 102.665 28.2056 102.665H117.971C118.27 102.665 118.558 102.546 118.769 102.334C118.981 102.122 119.1 101.835 119.101 101.536V52.4895C119.1 52.1901 118.981 51.903 118.769 51.6913C118.557 51.4796 118.27 51.3605 117.971 51.3601V51.3601ZM118.778 101.536C118.778 101.75 118.693 101.955 118.541 102.106C118.39 102.258 118.185 102.343 117.971 102.343H28.2056C27.9915 102.343 27.7862 102.258 27.6349 102.106C27.4835 101.955 27.3984 101.75 27.3983 101.536V52.4895C27.3986 52.2809 27.4796 52.0805 27.6243 51.9301C27.7691 51.7798 27.9663 51.6912 28.1749 51.6828L47.2564 59.5948L73.2948 70.3915C73.5767 70.5061 73.8925 70.5043 74.1731 70.3866L99.4041 59.619L118.003 51.6828C118.211 51.6918 118.408 51.7807 118.552 51.9309C118.697 52.0812 118.777 52.2812 118.778 52.4895V101.536Z" fill="#3F3D56"/>
<path d="M70.4676 56.4717C69.745 56.473 69.0416 56.2436 68.4634 55.8181L68.4276 55.7917L60.88 50.1181C60.5304 49.8552 60.237 49.5272 60.0166 49.153C59.7961 48.7787 59.6529 48.3655 59.5952 47.9369C59.5374 47.5083 59.5661 47.0727 59.6798 46.655C59.7935 46.2373 59.9898 45.8457 60.2577 45.5025C60.5255 45.1594 60.8595 44.8713 61.2407 44.6549C61.6219 44.4385 62.0428 44.2979 62.4794 44.2411C62.9159 44.1844 63.3596 44.2126 63.785 44.3242C64.2104 44.4358 64.6093 44.6286 64.9589 44.8916L69.8476 48.572L81.4006 33.7795C81.6686 33.4364 82.0027 33.1485 82.384 32.9322C82.7653 32.7159 83.1862 32.5755 83.6228 32.5189C84.0594 32.4623 84.503 32.4907 84.9284 32.6025C85.3538 32.7142 85.7526 32.9072 86.102 33.1702L86.0302 33.266L86.1039 33.1716C86.8088 33.7035 87.27 34.4882 87.3863 35.3535C87.5027 36.2189 87.2647 37.0942 86.7245 37.7874L73.1354 55.1869C72.8211 55.5878 72.417 55.9123 71.9543 56.1351C71.4917 56.3579 70.9829 56.4731 70.4676 56.4717V56.4717Z" fill="#00BFA6"/>
<path fill-rule="evenodd" clip-rule="evenodd" d="M12.3013 17.8995C12.7734 17.855 13.2682 17.6869 13.6899 17.8922C14.1348 18.1088 14.407 18.5529 14.5644 19.0013C14.7224 19.4514 14.7613 19.952 14.5663 20.389C14.3792 20.8082 13.9716 21.1012 13.5383 21.3007C13.1561 21.4767 12.7262 21.4141 12.3013 21.432C11.8507 21.4509 11.3833 21.6015 10.9816 21.4081C10.5519 21.2013 10.2197 20.8105 10.0965 20.3706C9.97634 19.9417 10.1491 19.5 10.3327 19.0915C10.5022 18.7143 10.7351 18.3574 11.1006 18.1361C11.4533 17.9225 11.8843 17.9388 12.3013 17.8995Z" fill="#C4C4C4" fill-opacity="0.12"/>
<path fill-rule="evenodd" clip-rule="evenodd" d="M136.075 109.956C136.547 109.912 137.042 109.743 137.463 109.949C137.908 110.165 138.18 110.61 138.338 111.058C138.496 111.508 138.535 112.009 138.34 112.446C138.153 112.865 137.745 113.158 137.312 113.357C136.93 113.533 136.5 113.471 136.075 113.489C135.624 113.507 135.157 113.658 134.755 113.465C134.325 113.258 133.993 112.867 133.87 112.427C133.75 111.998 133.923 111.557 134.106 111.148C134.276 110.771 134.509 110.414 134.874 110.193C135.227 109.979 135.658 109.995 136.075 109.956Z" fill="#C4C4C4" fill-opacity="0.12"/>
<path fill-rule="evenodd" clip-rule="evenodd" d="M113.641 29.5033C114.113 29.4588 114.608 29.2907 115.029 29.4959C115.474 29.7126 115.747 30.1567 115.904 30.6051C116.062 31.0552 116.101 31.5557 115.906 31.9928C115.719 32.4119 115.311 32.705 114.878 32.9045C114.496 33.0805 114.066 33.0179 113.641 33.0357C113.19 33.0547 112.723 33.2053 112.321 33.0119C111.892 32.805 111.559 32.4143 111.436 31.9743C111.316 31.5454 111.489 31.1037 111.672 30.6953C111.842 30.3181 112.075 29.9612 112.44 29.7399C112.793 29.5263 113.224 29.5426 113.641 29.5033Z" fill="#C4C4C4" fill-opacity="0.12"/>
<path fill-rule="evenodd" clip-rule="evenodd" d="M108.999 81.3335C109.471 81.289 109.966 81.1208 110.388 81.3261C110.833 81.5427 111.105 81.9869 111.262 82.4352C111.42 82.8854 111.459 83.3859 111.264 83.823C111.077 84.2421 110.67 84.5352 110.236 84.7347C109.854 84.9107 109.424 84.8481 108.999 84.8659C108.549 84.8848 108.081 85.0355 107.68 84.8421C107.25 84.6352 106.918 84.2445 106.794 83.8045C106.674 83.3756 106.847 82.9339 107.031 82.5255C107.2 82.1483 107.433 81.7914 107.799 81.5701C108.151 81.3565 108.582 81.3727 108.999 81.3335Z" fill="#C4C4C4" fill-opacity="0.12"/>
<path fill-rule="evenodd" clip-rule="evenodd" d="M99.7163 109.956C100.188 109.912 100.683 109.743 101.105 109.949C101.55 110.165 101.822 110.61 101.979 111.058C102.137 111.508 102.176 112.009 101.981 112.446C101.794 112.865 101.387 113.158 100.953 113.357C100.571 113.533 100.141 113.471 99.7163 113.489C99.2658 113.507 98.7984 113.658 98.3967 113.465C97.9669 113.258 97.6348 112.867 97.5115 112.427C97.3914 111.998 97.5642 111.557 97.7477 111.148C97.9172 110.771 98.1502 110.414 98.5157 110.193C98.8684 109.979 99.2993 109.995 99.7163 109.956Z" fill="#C4C4C4" fill-opacity="0.12"/>
</svg>
