<svg width="50" height="50" viewBox="0 0 50 50" fill="none" xmlns="http://www.w3.org/2000/svg">
<path d="M25 0L46.6506 12.5V37.5L25 50L3.34937 37.5V12.5L25 0Z" fill="url(#paint0_linear)"/>
<path d="M25 13C22.9505 13 21.1442 14.3547 20.5653 16.3232C19.9516 16.0453 19.3032 15.8947 18.6316 15.8947C17.4032 15.8947 16.2251 16.3827 15.3566 17.2513C14.488 18.1199 14 19.2979 14 20.5263C14.0027 21.552 14.345 22.5479 14.9735 23.3586C15.6019 24.1693 16.481 24.749 17.4737 25.0074V33.2632H32.5263V25.0074C34.5642 24.4747 36 22.6337 36 20.5263C36 19.2979 35.512 18.1199 34.6434 17.2513C33.7749 16.3827 32.5968 15.8947 31.3684 15.8947C30.6968 15.8947 30.0484 16.0453 29.4347 16.3232C28.8558 14.3547 27.0495 13 25 13V13ZM24.4211 23.4211H25.5789V31.5263H24.4211V23.4211ZM20.9474 25.7368H22.1053V31.5263H20.9474V25.7368V25.7368ZM27.8947 25.7368H29.0526V31.5263H27.8947V25.7368ZM17.4737 34.4211V35.5789C17.4737 35.886 17.5957 36.1806 17.8128 36.3977C18.03 36.6149 18.3245 36.7368 18.6316 36.7368H31.3684C31.6755 36.7368 31.97 36.6149 32.1872 36.3977C32.4043 36.1806 32.5263 35.886 32.5263 35.5789V34.4211H17.4737Z" fill="white"/>
<defs>
<linearGradient id="paint0_linear" x1="0" y1="0" x2="50" y2="50" gradientUnits="userSpaceOnUse">
<stop stop-color="#FCCF31"/>
<stop offset="1" stop-color="#F55555"/>
</linearGradient>
</defs>
</svg>
