<svg width="61" height="63" viewBox="0 0 61 63" fill="none" xmlns="http://www.w3.org/2000/svg">
<path d="M46.3421 49.7151C55.8025 43.0663 60.1787 22.6488 51.9515 14.1448C40.2602 2.06022 22.2307 7.4507 13.4519 15.616C4.67311 23.7814 0.919681 43.2728 12.1037 52.413C20.6696 59.4135 33.975 58.4068 46.3421 49.7151Z" fill="#193309"/>
<path d="M12.2707 47.9469C2.09291 39.0301 5.47637 20.3723 15.6926 12.1298C26.9097 3.07941 40.2358 3.38533 47.7951 11.376C56.5705 20.6545 51.4893 36.3319 42.4707 44.5808C33.6192 52.6725 19.9527 54.6784 12.2707 47.9469Z" fill="#B7D118"/>
<path d="M29.0344 38.4445C27.8477 38.5623 27.2573 36.8988 25.0638 36.6387C21.9057 36.2686 19.6514 37.9885 19.1841 37.2496C18.5983 36.3231 20.5256 34.3882 21.7055 31.6171C23.0307 28.5035 21.6731 27.6274 22.3221 26.8669C23.0968 25.9593 25.3761 27.0283 27.7226 25.3536C30.0272 23.7133 30.5297 21.7206 31.2138 21.475C31.8933 21.2284 33.4695 22.3243 35.69 22.3126C37.9105 22.3009 40.2204 20.9835 40.8985 21.7602C41.5766 22.5368 38.6992 24.4479 38.2171 27.2591C37.8961 29.1171 38.5571 30.2945 38.0064 30.965C37.4557 31.6355 35.0227 31.4433 32.6729 33.1758C29.5928 35.4458 29.9068 38.3583 29.0344 38.4445Z" fill="#E5DDA0"/>
<path d="M49.6799 23.3287C50.0257 25.0395 46.4039 25.3644 45.0573 25.6948C43.7106 26.0252 41.0564 26.7288 40.6953 25.3021C40.3842 24.0866 44.4215 23.2801 45.6706 22.9716C46.9208 22.6585 49.3849 21.8682 49.6799 23.3287Z" fill="#7FB240"/>
<path d="M43.918 20.2566C43.413 19.5774 44.3864 18.6317 45.3421 17.9159C46.2695 17.2182 47.2657 17.1452 47.6872 17.6545C48.3307 18.4331 47.9789 19.1727 46.7009 20.0207C45.7568 20.6415 44.6518 21.2408 43.918 20.2566Z" fill="#7FB240"/>
<path d="M39.7575 20.1823C38.5625 19.6012 40.0805 16.5407 41.0855 14.2859C42.2801 11.601 43.0005 9.65754 44.5259 10.3082C46.2064 11.0279 44.616 13.609 43.6128 15.5961C41.9087 18.9851 41.2383 20.9009 39.7575 20.1823Z" fill="#7FB240"/>
<path d="M34.9553 20.4022C33.3782 19.8081 35.0757 15.8424 35.9063 12.3493C36.6352 9.28655 37.3542 7.28424 38.6687 7.74604C40.0414 8.23069 39.1784 10.7855 38.2989 13.673C37.422 16.5708 36.7514 21.0846 34.9553 20.4022Z" fill="#7FB240"/>
<path d="M31.4074 18.3648C29.9523 18.5489 29.8775 17.2793 29.2597 14.2009C28.8072 11.9249 28.1164 9.97067 29.6614 9.73371C31.05 9.52003 31.3589 11.5248 31.7417 13.2878C32.3731 16.1549 32.8831 18.1756 31.4074 18.3648Z" fill="#7FB240"/>
<path d="M29.0787 21.54C26.9688 22.532 25.9669 18.67 24.5883 15.7224C23.1991 12.7578 22.2318 10.4731 23.643 9.94282C25.1011 9.39871 26.019 12.184 27.0908 14.697C28.158 17.2088 30.2392 20.9971 29.0787 21.54Z" fill="#7FB240"/>
<path d="M24.3699 24.116C23.4976 24.8506 22.791 24.3307 21.3955 22.6272C19.9347 20.8455 18.8312 19.4905 18.4088 18.942C17.9864 18.3936 16.2892 16.471 17.3483 15.5347C18.4921 14.525 19.9654 16.4459 20.4759 17.0142C20.9818 17.5815 23.8455 21.1853 24.4587 22.0985C25.072 23.0116 24.9707 23.6128 24.3699 24.116Z" fill="#7FB240"/>
<path d="M20.1089 27.3434C19.6182 28.1152 18.6275 28.0773 16.0308 26.9026C13.7173 25.8551 13.1498 25.3666 12.1055 24.7658C11.7126 24.5408 9.93119 23.5985 10.6182 22.3445C11.187 21.3125 13.4196 22.6537 14.4293 23.1054C15.9077 23.7698 20.742 26.3503 20.1089 27.3434Z" fill="#7FB240"/>
<path d="M20.2616 31.1019C20.281 32.4224 17.9279 32.2872 15.1999 31.9117C13.1293 31.6257 10.8322 31.3715 11.1022 29.9992C11.4252 28.3708 13.8775 28.9962 15.7727 29.2817C18.1449 29.6357 20.2436 29.9914 20.2616 31.1019Z" fill="#7FB240"/>
<path d="M7.8026 36.6847C7.5223 34.9643 10.3295 34.685 12.1351 34.3946C14.4913 34.0187 16.1279 33.6561 16.8359 33.5426C17.4634 33.4402 18.5233 33.8203 18.6476 34.8915C18.772 35.9626 16.8851 36.181 15.1231 36.5592C13.3611 36.9374 8.08081 38.4145 7.8026 36.6847Z" fill="#7FB240"/>
<path d="M9.79647 42.0082C9.20932 40.633 10.6325 40.2224 12.6232 39.262C14.6091 38.3006 17.0731 36.8619 17.6005 38.1993C18.069 39.387 15.7799 40.3094 14.1389 41.1242C12.5025 41.9402 10.4421 43.5136 9.79647 42.0082Z" fill="#7FB240"/>
<path d="M14.611 47.4895C13.4674 46.7883 14.5997 45.1374 15.7997 43.2288C16.9998 41.3202 18.8121 37.7752 20.1378 38.6636C20.9465 39.2065 19.3793 41.7928 18.0576 44.2199C17.4053 45.4281 16.149 48.4305 14.611 47.4895Z" fill="#7FB240"/>
<path d="M21.7882 49.1253C20.2613 48.6547 21.1336 46.2969 21.6264 43.5027C22.4862 38.6464 22.9283 37.5713 24.0154 37.7869C25.6671 38.115 24.6669 41.0192 24.1945 44.242C23.8188 46.8189 23.7022 49.7173 21.7882 49.1253Z" fill="#7FB240"/>
<path d="M29.5731 48.0418C28.3738 48.2592 27.7695 47.2847 27.4404 44.4175C27.0806 41.2752 26.8374 39.9531 28.1158 39.6658C29.3942 39.3786 29.6059 41.6637 30.0184 44.0524C30.2055 45.1475 30.9964 47.7824 29.5731 48.0418Z" fill="#7FB240"/>
<path d="M35.1282 47.1631C33.6424 47.8082 32.9454 46.0768 32.0006 43.3244C31.0656 40.5937 29.9006 37.9964 31.5117 37.3795C32.9466 36.8302 34.1449 40.751 34.7321 42.4724C35.3193 44.1937 36.348 46.6384 35.1282 47.1631Z" fill="#7FB240"/>
<path d="M42.1815 41.9908C41.4936 42.6645 40.2005 42.1295 38.0041 39.8264C35.8078 37.5233 34.0666 36.0343 34.9298 34.8639C35.7091 33.8062 38.3975 36.2835 39.844 37.6524C41.2679 38.9919 43.307 40.8892 42.1815 41.9908Z" fill="#7FB240"/>
<path d="M46.6131 35.9062C46.2198 36.8949 44.6089 36.7319 42.3419 35.6948C39.8977 34.5789 37.6767 33.4888 38.2508 32.3898C38.826 31.2861 41.1893 32.1986 43.7494 33.1896C45.1745 33.7445 47.1119 34.6439 46.6131 35.9062Z" fill="#7FB240"/>
<path d="M49.6862 29.1015C49.582 30.3649 48.3945 30.5946 45.571 30.4266C42.7465 30.2633 40.2027 30.4118 39.9312 29.0199C39.644 27.5465 44.1576 27.7637 46.0974 27.7863C47.57 27.806 49.8022 27.6556 49.6862 29.1015Z" fill="#7FB240"/>
<path d="M43.0738 28.7235C43.1056 30.0321 42.0146 30.4396 40.7408 30.3379C39.4671 30.2363 38.9344 29.6581 38.9602 28.9376C38.9942 28.0727 39.6093 27.5922 40.7835 27.5301C41.9586 27.4633 43.0489 27.86 43.0738 28.7235Z" fill="#523519"/>
<path d="M40.1747 25.5798C39.9721 24.8127 40.5466 24.1232 41.4611 23.9587C41.9942 23.8643 43.1704 23.9879 43.3345 24.8389C43.5134 25.7761 42.9574 26.3186 42.0064 26.4505C41.2417 26.5561 40.3747 26.3365 40.1747 25.5798Z" fill="#523519"/>
<path d="M43.3595 20.6377C42.9896 19.9207 43.457 19.1876 43.9639 18.863C44.3675 18.6078 45.1914 18.5205 45.644 19.1732C46.0965 19.8259 45.6816 20.6294 45.2083 20.9128C44.7247 21.1987 43.7718 21.4471 43.3595 20.6377Z" fill="#523519"/>
<path d="M41.2569 17.3126C40.4394 16.9384 39.6538 17.4829 39.2134 18.5292C38.772 19.5801 39.0198 20.2111 39.6627 20.5168C40.3055 20.8224 41.1189 20.4792 41.5377 19.7449C41.9566 19.0105 42.2377 17.7626 41.2569 17.3126Z" fill="#523519"/>
<path d="M34.928 20.5227C33.9307 20.2542 33.922 19.1457 34.1693 18.3727C34.4841 17.3859 35.121 16.7007 35.9045 16.9015C36.6879 17.1023 37.0053 17.944 36.7282 19.0661C36.4876 20.0258 36.0114 20.8203 34.928 20.5227Z" fill="#523519"/>
<path d="M31.5377 18.8038C30.7562 18.9836 30.1692 18.4517 29.9995 17.5604C29.8344 16.6702 30.3166 15.6333 31.033 15.6338C31.7448 15.6333 32.4267 16.1768 32.461 17.1497C32.4954 18.1226 32.1906 18.6535 31.5377 18.8038Z" fill="#523519"/>
<path d="M29.135 22.2206C28.3142 22.6401 27.5589 22.1629 26.9533 21.0858C26.3478 20.0086 26.5082 18.9285 27.251 18.5304C28.1922 18.0307 29.1147 19.0427 29.5546 19.9461C29.9946 20.8495 29.7584 21.8979 29.135 22.2206Z" fill="#523519"/>
<path d="M25.1742 25.3062C24.2376 26.0019 23.2815 25.2259 22.6407 24.4138C21.9951 23.6006 21.9251 22.4832 22.6441 21.953C23.3631 21.4227 24.4566 21.7616 25.218 22.9909C25.8238 23.9804 25.8364 24.8119 25.1742 25.3062Z" fill="#523519"/>
<path d="M21.1472 28.0794C20.6515 28.9816 19.66 28.6657 18.8931 28.2833C18.1251 27.9056 17.6316 26.9804 18.0477 26.3235C18.4793 25.6408 19.1366 25.5792 20.1359 26.0334C21.1352 26.4876 21.4956 27.4413 21.1472 28.0794Z" fill="#523519"/>
<path d="M21.2071 31.0809C21.1026 31.8909 20.411 32.2567 19.3731 32.2764C18.3353 32.2961 17.5672 31.6162 17.6608 30.7891C17.7545 29.962 18.6589 29.5174 19.7266 29.6897C20.7943 29.8619 21.2999 30.3658 21.2071 31.0809Z" fill="#523519"/>
<path d="M19.2875 34.28C19.5796 35.5156 18.3264 35.9938 17.6962 36.1297C17.066 36.2656 15.6802 36.207 15.4886 35.2182C15.296 34.234 16.3757 33.6388 17.1668 33.4806C18.0339 33.3103 19.0888 33.431 19.2875 34.28Z" fill="#523519"/>
<path d="M15.7215 39.2043C15.1788 38.346 16.2058 37.6171 16.5022 37.4694C16.994 37.234 17.6769 37.383 17.9682 37.7996C18.3525 38.3443 17.9952 38.9999 17.548 39.3622C17.0962 39.7236 16.1456 39.875 15.7215 39.2043Z" fill="#523519"/>
<path d="M20.3741 39.8866C20.1403 40.4482 19.5403 41.0345 18.8326 40.7142C18.1248 40.3939 18.0453 39.7082 18.3708 38.9772C18.6963 38.2462 19.4908 37.9865 20.0184 38.1979C20.547 38.4047 20.6187 39.2983 20.3741 39.8866Z" fill="#523519"/>
<path d="M23.206 41.4896C22.344 41.3345 22.1356 40.4637 22.3035 39.2635C22.5331 37.6383 23.2995 37.1139 24.2826 37.3158C25.1867 37.5 25.4358 38.4286 25.1221 39.7131C24.8084 40.9975 24.2231 41.67 23.206 41.4896Z" fill="#523519"/>
<path d="M28.5975 41.8559C27.87 42.121 26.8724 41.4429 26.9736 40.4957C27.0759 39.5438 28.0727 39.0567 28.9084 39.5666C29.7487 40.0776 29.6441 41.4725 28.5975 41.8559Z" fill="#523519"/>
<path d="M32.7595 40.9508C31.6618 41.3226 30.919 40.4436 30.6243 39.0904C30.3682 37.9116 30.6542 37.1181 31.3827 36.8483C32.1123 36.5739 33.0216 37.1248 33.4167 38.2277C33.8767 39.4963 33.8055 40.5917 32.7595 40.9508Z" fill="#523519"/>
<path d="M36.9868 36.6823C36.5563 37.1654 35.5666 37.4689 34.5081 36.2605C33.7744 35.4275 33.8428 34.4095 34.2444 33.9686C34.5885 33.5879 35.7979 33.6068 36.5472 34.3703C37.1669 35.0168 37.5679 36.0284 36.9868 36.6823Z" fill="#523519"/>
<path d="M40.8142 33.4741C40.5439 34.198 39.4131 34.2845 38.7061 33.8523C38.0599 33.4533 37.6955 32.8204 38.0169 32.108C38.3371 31.4002 39.4013 31.5668 39.7799 31.7252C40.1596 31.879 41.1656 32.5199 40.8142 33.4741Z" fill="#523519"/>
</svg>
