<svg width="337" height="105" viewBox="0 0 337 105" fill="none" xmlns="http://www.w3.org/2000/svg">
<path d="M8.67902 12.9933C25.7833 10.7669 39.657 10.5986 54.8124 9.86803C62.3082 9.507 71.7319 9.86805 82.5947 12.9933C89.3274 16.3506 95.6305 19.3659 103.894 29.3157C113.873 41.3295 102.042 58.8233 95.4219 64.1249C89.8334 67.1915 75.0803 72.4917 66.9171 74.3669C64.6994 74.8764 64.1267 74.9484 63.5912 77.8463C63.1471 80.2499 62.5224 83.8312 63.1471 90.4367C63.1471 97.8453 61.5133 98.9938 60.3688 99.6975C59.569 100.188 55.6517 102.217 50.182 102.476C38.6109 103.022 39.0691 100.624 36.2908 96.9192C35.4299 93.4186 32.7882 89.1134 22.9412 58.8233C22.2451 56.6819 21.2367 53.8149 20.7008 52.4522C20.1637 51.0894 19.1253 48.9591 18.6954 46.9111C18.4452 45.7192 14.9911 47.1769 11.2868 46.2509C4.41046 44.5318 4.94772 41.7851 3.87817 38.5764C2.9521 35.7982 2.91575 33.8218 2.02602 31.1678C1.13744 28.5146 0.61289 23.4056 0.173788 20.981C-0.753974 15.86 2.02602 14.4984 8.67902 12.9933Z" fill="#244895"/>
<path d="M128.172 23.4025C129.363 23.0983 133.506 22.439 137.378 21.9373C147.207 20.6637 151.254 20.6629 160.117 21.9307C171.077 23.499 179.15 26.3999 186.752 31.5019C196.023 37.7229 200.309 44.0182 201.015 52.4484C202.003 64.2759 196.81 73.2762 183.982 81.9716C161.948 96.9056 128.884 99.3792 106.352 87.7786C97.5392 83.2416 95.9959 82.0489 91.6887 76.4431C83.5456 65.845 84.6698 53.1069 94.7894 41.3398C101.038 34.0721 114.305 26.9436 128.172 23.4025Z" fill="#244895"/>
<path d="M19.3747 20.6447C32.2083 18.8248 43.0253 17.7451 54.3967 17.1479C60.021 16.8528 70.7022 17.3545 74.7181 18.1027C81.4579 19.3584 88.8281 23.623 92.4358 28.3552C100.899 39.4559 97.7565 51.9935 84.5303 59.8978C80.3372 62.4045 69.2676 66.7368 63.1427 68.2697C58.5042 69.4304 57.8574 69.7793 57.8678 71.1137C57.8747 71.9498 58.2629 77.0518 58.7316 82.4511C59.4035 90.1894 59.3525 92.4224 58.4938 92.9976C57.8937 93.3986 54.0456 93.8997 49.9415 94.1109C41.2595 94.5576 41.0875 94.4662 39.7912 88.7225C39.1452 85.8611 37.5351 80.3235 30.1467 55.5643C29.6244 53.8139 28.8678 51.4704 28.4657 50.3565C28.0627 49.2426 27.4695 46.9616 27.147 45.2875C26.3868 41.3446 24.6954 40.461 19.4456 41.2648C14.5062 42.0216 12.8891 41.5657 12.8891 39.4183C12.8891 38.474 12.3434 35.9273 11.6759 33.758C11.0092 31.5892 10.1937 28.1926 9.86423 26.2107C9.16812 22.0248 9.01592 22.1133 19.3747 20.6447Z" fill="#F8E34D"/>
<path d="M70.1783 45.7314C74.2918 42.8468 74.6412 39.8425 71.1822 37.0922C69.0766 35.4175 68.601 35.3151 63.1834 35.3695C60.015 35.4013 56.4505 35.6097 55.2615 35.8324C53.2536 36.2086 53.1048 36.4828 53.174 39.6804C53.2674 43.9566 54.4296 50.6128 55.2355 51.4854C56.1011 52.4234 66.1572 48.5511 70.1783 45.7314Z" fill="#244895"/>
<path d="M130.846 28.4396C131.797 28.2006 135.105 27.6827 138.196 27.2887C146.045 26.2882 149.276 26.2876 156.352 27.2834C165.104 28.5154 171.549 30.7941 177.62 34.8018C185.022 39.6885 188.445 44.6336 189.008 51.2556C189.797 60.5464 185.651 67.6163 175.408 74.4467C157.815 86.1776 131.414 88.1207 113.423 79.0081C106.387 75.4442 105.154 74.5074 101.715 70.1039C95.2134 61.7789 96.111 51.773 104.191 42.5296C109.181 36.8207 119.774 31.2211 130.846 28.4396Z" fill="#F6DD4E"/>
<path d="M143.128 43.0226C144.203 42.6951 145.083 42.1604 145.083 41.8352C145.083 40.4499 137.614 42.2443 132.489 44.8615C127.756 47.2791 125.194 50.7585 125.194 54.7726C125.194 58.3162 127.095 60.6071 132.41 63.4685C135.468 65.1153 136.227 65.253 141.922 65.194C149.506 65.1153 153.194 64.0905 157.723 60.8021C161.356 58.1652 163.924 53.6593 162.841 51.825C162.33 50.9599 161.998 51.1121 160.791 52.7664C158.552 55.8356 155.334 57.1161 149.854 57.1161C144.762 57.1161 141.862 55.894 139.38 52.7016C136.826 49.4155 138.789 44.3459 143.128 43.0226Z" fill="#244895"/>
<ellipse cx="271.95" cy="47.7612" rx="23.9087" ry="17.4654" fill="#244895"/>
<path fill-rule="evenodd" clip-rule="evenodd" d="M267.131 21.2973C249.721 22.9473 237.158 29.5613 232.515 39.5198C226.272 52.9145 228.233 66.718 237.737 76.2603C245.506 84.0616 257.037 87.5051 277.342 88.0864C287.484 88.3767 292.108 88.1759 298.373 87.1755C307.94 85.6477 317.297 82.7885 323.711 79.4331C328.914 76.7106 336.34 70.691 336.34 69.1945C336.34 67.9941 318.378 56.2531 316.542 56.2531C315.809 56.2531 314.68 56.8977 314.033 57.6849C312.029 60.1272 302.946 64.1367 296.9 65.2483C288.18 66.8526 281.963 67.3647 281.184 66.5434C280.806 66.1447 285.15 63.1341 290.837 59.8537C313.395 46.841 321.828 41.5205 321.828 40.3005C321.828 37.9316 315.055 30.1695 310.927 27.8065C303.84 23.7512 294.643 21.5163 283.292 21.0906C277.779 20.8848 270.508 20.9771 267.131 21.2973ZM286.628 40.0182C288.798 40.6926 290.573 41.6617 290.573 42.1717C290.573 43.8567 263.168 59.3931 261.02 58.9268C260.391 58.79 258.98 57.105 257.884 55.1814C256.041 51.9454 256.022 51.4361 257.641 48.331C259.921 43.9563 261.293 42.8563 267.224 40.6468C273.113 38.4525 280.791 38.2044 286.628 40.0182Z" fill="#244895"/>
<path d="M332.755 66.4985L308.843 78.1528L258.572 53.3711L284.311 31.7099L332.755 66.4985Z" fill="#244895"/>
<path d="M209.672 36.9802C210.698 35.8797 217.413 29.3291 224.594 22.4234C233.187 14.161 238.298 9.86816 239.542 9.86816C240.582 9.86816 241.59 10.1229 241.783 10.4351C241.975 10.7467 247.678 14.0547 254.455 17.7871C261.232 21.5187 266.777 24.9038 266.777 25.3093C266.777 25.7154 264.51 27.8931 261.74 30.1487C258.969 32.405 255.783 35.1089 254.661 36.1584C253.538 37.2072 247.782 42.3312 241.87 47.544C235.958 52.7575 231.121 57.372 231.121 57.8C231.121 58.2272 235.25 60.2615 240.297 62.3199C275.508 76.683 286.898 81.5632 287.584 82.5814C288.961 84.6237 287.744 100.168 286.174 100.586C285.411 100.789 276.246 97.2466 265.809 92.7137C255.371 88.1807 245.676 83.9803 244.263 83.3798C242.85 82.7794 236.226 79.9255 229.543 77.0375C220.401 73.086 217.25 72.0445 216.816 72.8291C216.499 73.4026 216.756 79.4175 217.388 86.1959C218.918 102.619 219.098 101.339 215.128 102.211C210.064 103.322 194.686 104.715 192.858 104.228C191.723 103.926 191.26 102.708 191.234 99.9608C191.216 97.8471 190.75 93.8243 190.198 91.0222C189.647 88.22 188.708 81.997 188.111 77.1932C187.515 72.3895 186.585 65.1839 186.046 61.1808C185.507 57.1777 184.349 48.5397 183.472 41.9855C182.595 35.4313 181.573 28.9404 181.199 27.5619C180.466 24.8493 180.355 24.8383 169.083 26.326C165.7 26.7729 165.37 26.4403 164.457 21.6708C163.758 18.012 163.822 17.886 166.754 17.1109C168.413 16.6727 171.894 16.022 174.489 15.6654C177.085 15.3088 182.512 14.4754 186.55 13.8138C190.587 13.1514 195.826 12.4556 198.191 12.2664L202.49 11.9221L203.164 15.8081C203.533 17.9457 203.84 21.5281 203.844 23.7692C203.85 26.0109 204.159 30.3503 204.532 33.413C205.273 39.4963 206.522 40.3624 209.672 36.9802Z" fill="#244895"/>
<path d="M190.651 48.204L233.288 3.71102L248.294 14.5677L201.693 62.4868L190.651 48.204Z" fill="#244895"/>
<path d="M209.084 38.8313C209.93 37.9563 215.467 32.7485 221.388 27.2583C228.473 20.6895 232.688 17.2767 233.714 17.2767C234.571 17.2767 235.402 17.4792 235.561 17.7274C235.72 17.9751 240.422 20.605 246.01 23.5723C251.598 26.5391 256.171 29.2303 256.171 29.5527C256.171 29.8755 254.301 31.6069 252.018 33.4001C249.733 35.1939 247.106 37.3436 246.181 38.178C245.254 39.0118 240.508 43.0855 235.633 47.2297C230.759 51.3746 226.77 55.0432 226.77 55.3835C226.77 55.7231 230.175 57.3405 234.336 58.9769C263.37 70.3959 272.762 74.2757 273.327 75.0852C274.463 76.7089 273.46 89.0671 272.165 89.3992C271.536 89.5607 263.979 86.7444 255.373 83.1406C246.766 79.5368 238.771 76.1974 237.607 75.72C236.441 75.2426 230.979 72.9738 225.469 70.6777C217.93 67.5362 215.333 66.7082 214.975 67.3319C214.713 67.7879 214.925 72.5699 215.446 77.9588C216.708 91.0154 216.856 89.9981 213.582 90.6914C209.407 91.5744 196.727 92.6819 195.22 92.2948C194.284 92.0546 193.902 91.086 193.881 88.9022C193.865 87.2218 193.481 84.0236 193.027 81.7958C192.572 79.568 191.798 74.6206 191.306 70.8015C190.814 66.9824 190.048 61.2538 189.603 58.0713C189.159 54.8887 188.203 48.0213 187.48 42.8106C186.757 37.5999 185.914 32.4395 185.606 31.3436C185.002 29.187 184.91 29.1783 175.616 30.361C172.826 30.7163 172.554 30.4519 171.802 26.66C171.225 23.7511 171.277 23.651 173.695 23.0348C175.063 22.6864 177.933 22.1691 180.074 21.8856C182.214 21.602 186.689 20.9395 190.018 20.4135C193.347 19.8869 197.667 19.3337 199.617 19.1833L203.162 18.9096L203.717 21.999C204.022 23.6985 204.275 26.5466 204.279 28.3282C204.283 30.1105 204.538 33.5604 204.846 35.9953C205.456 40.8316 206.486 41.5202 209.084 38.8313Z" fill="#F8E34D"/>
<ellipse cx="271.514" cy="51.5415" rx="18.5215" ry="13.8911" fill="#244895"/>
<path fill-rule="evenodd" clip-rule="evenodd" d="M271.485 28.6411C257.998 29.9535 248.265 35.214 244.669 43.1345C239.832 53.788 241.352 64.7667 248.714 72.3562C254.733 78.561 263.666 81.2998 279.395 81.7621C287.252 81.993 290.834 81.8333 295.688 81.0376C303.099 79.8225 310.348 77.5484 315.317 74.8797C319.347 72.7144 325.099 67.9266 325.099 66.7364C325.099 65.7816 311.185 56.4434 309.762 56.4434C309.195 56.4434 308.32 56.9561 307.819 57.5822C306.266 59.5247 299.23 62.7136 294.546 63.5978C287.791 64.8737 282.975 65.2811 282.372 64.6278C282.078 64.3107 285.444 61.9162 289.85 59.3071C307.325 48.9574 313.858 44.7258 313.858 43.7554C313.858 41.8713 308.611 35.6977 305.413 33.8183C299.922 30.5929 292.798 28.8153 284.004 28.4768C279.734 28.3131 274.101 28.3865 271.485 28.6411ZM286.589 43.5309C288.27 44.0673 289.645 44.8381 289.645 45.2437C289.645 46.5838 268.415 58.9408 266.751 58.5699C266.264 58.4611 265.171 57.121 264.322 55.591C262.894 53.0172 262.879 52.6122 264.133 50.1425C265.9 46.6631 266.963 45.7882 271.557 44.0308C276.12 42.2856 282.067 42.0883 286.589 43.5309Z" fill="#F8E34D"/>
</svg>
